<svg width="48" height="42" viewBox="0 0 48 42" fill="none" xmlns="http://www.w3.org/2000/svg">
<path d="M38 12.25H22V24.5H6V8.75H2V35H6V29.75H42V35H46V19.25C46 17.3935 45.1571 15.613 43.6569 14.3003C42.1566 12.9875 40.1217 12.25 38 12.25ZM14 22.75C15.5913 22.75 17.1174 22.1969 18.2426 21.2123C19.3679 20.2277 20 18.8924 20 17.5C20 16.1076 19.3679 14.7723 18.2426 13.7877C17.1174 12.8031 15.5913 12.25 14 12.25C12.4087 12.25 10.8826 12.8031 9.75736 13.7877C8.63214 14.7723 8 16.1076 8 17.5C8 18.8924 8.63214 20.2277 9.75736 21.2123C10.8826 22.1969 12.4087 22.75 14 22.75Z" fill="white"/>
</svg>
