<svg width="131" height="77" viewBox="0 0 131 77" fill="none" xmlns="http://www.w3.org/2000/svg">
<g filter="url(#filter0_d_203_57)">
<path d="M1.14532 66.4808C0.858599 66.9529 1.00882 67.568 1.48084 67.8547C1.95287 68.1414 2.56796 67.9912 2.85468 67.5192L1.14532 66.4808ZM64.6867 51.2857L63.7746 51.6956L65.4252 51.9601L64.6867 51.2857ZM79.994 34.5238L80.8805 34.0612L79.2555 33.8495L79.994 34.5238ZM88.741 51.2857L87.8544 51.7483L89.6759 51.6405L88.741 51.2857ZM122.078 67.3875C122.292 67.8967 122.878 68.1359 123.388 67.9219C123.897 67.7078 124.136 67.1216 123.922 66.6125L122.078 67.3875ZM101.418 17.8835L102.353 18.2384L101.418 17.8835ZM102.346 17.8672L101.424 18.2547L102.346 17.8672ZM42.4801 1.86734L41.568 2.27722L42.4801 1.86734ZM2.85468 67.5192L42.4514 2.33186L40.742 1.29355L1.14532 66.4808L2.85468 67.5192ZM41.568 2.27722L63.7746 51.6956L65.5989 50.8758L43.3922 1.45746L41.568 2.27722ZM65.4252 51.9601L80.7324 35.1981L79.2555 33.8495L63.9483 50.6114L65.4252 51.9601ZM79.1074 34.9864L87.8544 51.7483L89.6275 50.8231L80.8805 34.0612L79.1074 34.9864ZM89.6759 51.6405L102.353 18.2384L100.483 17.5287L87.806 50.9309L89.6759 51.6405ZM101.424 18.2547L122.078 67.3875L123.922 66.6125L103.268 17.4797L101.424 18.2547ZM102.353 18.2384C102.192 18.6604 101.599 18.6709 101.424 18.2547L103.268 17.4797C102.743 16.2312 100.963 16.2625 100.483 17.5287L102.353 18.2384ZM42.4514 2.33186C42.2423 2.676 41.733 2.64452 41.568 2.27722L43.3922 1.45746C42.8971 0.355599 41.3692 0.261114 40.742 1.29355L42.4514 2.33186Z" fill="white"/>
</g>
<defs>
<filter id="filter0_d_203_57" x="-0.00012207" y="0.572205" width="131" height="76.428" filterUnits="userSpaceOnUse" color-interpolation-filters="sRGB">
<feFlood flood-opacity="0" result="BackgroundImageFix"/>
<feColorMatrix in="SourceAlpha" type="matrix" values="0 0 0 0 0 0 0 0 0 0 0 0 0 0 0 0 0 0 127 0" result="hardAlpha"/>
<feOffset dx="3" dy="5"/>
<feGaussianBlur stdDeviation="2"/>
<feComposite in2="hardAlpha" operator="out"/>
<feColorMatrix type="matrix" values="0 0 0 0 0 0 0 0 0 0 0 0 0 0 0 0 0 0 0.25 0"/>
<feBlend mode="normal" in2="BackgroundImageFix" result="effect1_dropShadow_203_57"/>
<feBlend mode="normal" in="SourceGraphic" in2="effect1_dropShadow_203_57" result="shape"/>
</filter>
</defs>
</svg>
