<svg width="38" height="38" viewBox="0 0 38 38" fill="none" xmlns="http://www.w3.org/2000/svg">
<g clip-path="url(#clip0_5_63)">
<path d="M37.1364 0.863636C37.928 1.79924 38.036 3.13068 37.4602 4.85796C36.8845 6.58523 35.9129 8.13258 34.5455 9.50001L30.2003 13.8452L34.5185 32.6293C34.6084 32.9711 34.5005 33.268 34.1946 33.5199L30.7401 36.1108C30.6141 36.2188 30.4432 36.2727 30.2273 36.2727C30.1553 36.2727 30.0923 36.2638 30.0384 36.2458C29.7685 36.1918 29.5795 36.0478 29.4716 35.8139L21.9418 22.1037L14.9517 29.0938L16.3821 34.3296C16.4721 34.6354 16.4001 34.9143 16.1662 35.1662L13.5753 37.7571C13.4134 37.9191 13.2064 38 12.9545 38H12.9006C12.6307 37.964 12.4148 37.8471 12.2528 37.6492L7.15199 30.848L0.350849 25.7472C0.152932 25.6212 0.0359817 25.4143 -3.15229e-06 25.1264C-0.0179956 24.8925 0.0629703 24.6676 0.242895 24.4517L2.8338 21.8338C2.99574 21.6719 3.20265 21.5909 3.45454 21.5909C3.5625 21.5909 3.63447 21.5999 3.67045 21.6179L8.90625 23.0483L15.8963 16.0582L2.18608 8.52841C1.93418 8.38447 1.78125 8.16857 1.72727 7.88069C1.69128 7.59281 1.77225 7.34991 1.97017 7.15199L5.42471 3.69744C5.67661 3.46354 5.94649 3.39157 6.23437 3.48154L24.1818 7.77273L28.5 3.45455C29.8674 2.08712 31.4148 1.11553 33.142 0.539773C34.8693 -0.0359854 36.2008 0.0719693 37.1364 0.863636Z" fill="white"/>
</g>
<defs>
<clipPath id="clip0_5_63">
<rect width="38" height="38" fill="white"/>
</clipPath>
</defs>
</svg>
