<svg width="223" height="40" viewBox="0 0 223 40" fill="none" xmlns="http://www.w3.org/2000/svg">
<path d="M212.817 15.9416C210.651 15.9416 210.351 18.0997 210.351 18.0997H214.952C214.952 18.0997 214.982 15.9416 212.817 15.9416Z" fill="white"/>
<path d="M202.378 18.0997H198.302V21.8463H202.176C202.761 21.8313 203.855 21.6665 203.855 20.0254C203.855 18.0772 202.378 18.0997 202.378 18.0997Z" fill="white"/>
<path d="M206.215 0.835144C196.946 0.835144 189.43 8.3509 189.43 17.6201C189.43 26.8893 196.946 34.405 206.215 34.405C215.484 34.405 223 26.8893 223 17.6201C223 8.3509 215.484 0.835144 206.215 0.835144ZM209.752 11.1459H215.529V12.8694H209.752V11.1459ZM206.829 20.1978C206.829 24.4689 202.378 24.3341 202.378 24.3341H195.095V10.3216H202.378C204.596 10.3216 206.342 11.543 206.342 14.0533C206.342 16.5635 204.207 16.7209 204.207 16.7209C207.024 16.7209 206.829 20.1978 206.829 20.1978ZM217.635 19.9655H210.374C210.374 22.5657 212.839 22.4008 212.839 22.4008C215.169 22.4008 215.087 20.8947 215.087 20.8947H217.552C217.552 24.8961 212.757 24.6188 212.757 24.6188C207.009 24.6188 207.376 19.2611 207.376 19.2611C207.376 19.2611 207.369 13.8809 212.757 13.8809C218.429 13.8884 217.635 19.9655 217.635 19.9655Z" fill="white"/>
<path d="M203.368 14.2706C203.368 12.8169 202.378 12.8169 202.378 12.8169H198.302V15.9416H202.124C202.783 15.9416 203.368 15.7243 203.368 14.2706Z" fill="white"/>
<path d="M140.918 37H147.459V23.9312H153.353L154 17.437H147.459V14.1579C147.459 13.2568 148.191 12.5263 149.094 12.5263H154V6H149.094C144.578 6 140.918 9.65242 140.918 14.1579V17.437H137.647L137 23.9312H140.918V37Z" fill="#FF2B51"/>
<path d="M73.5341 6.43011L71.1362 12.4247V35.2043H78.3298V40H83.1255L87.9212 35.2043H93.9158L102.308 26.8118V6.43011H73.5341ZM98.7115 25.6129L93.9158 30.4086H86.7223L81.9266 35.2043V30.4086H75.9319V10.0269H98.7115V25.6129Z" fill="white"/>
<path d="M95.1147 14.7477H91.5179V24.414H95.1147V14.7477Z" fill="white"/>
<path d="M86.7223 14.7477H83.1255V24.414H86.7223V14.7477Z" fill="white"/>
<path d="M36 11.4362C34.6496 12.027 33.2208 12.4163 31.7588 12.5917C33.2953 11.6857 34.4507 10.2464 35.0085 8.54376C33.5558 9.3991 31.9692 9.99925 30.3165 10.3185C29.6206 9.58408 28.7836 8.99983 27.8565 8.60127C26.9293 8.2027 25.9314 7.99814 24.9233 8.00001C20.8418 8.00001 17.5388 11.2776 17.5388 15.318C17.5359 15.88 17.5998 16.4403 17.7292 16.987C14.8025 16.8488 11.9366 16.097 9.31499 14.7797C6.69333 13.4624 4.37361 11.6085 2.50425 9.33673C1.84843 10.45 1.5016 11.7202 1.5 13.0146C1.5 15.5521 2.81475 17.795 4.8 19.1091C3.6238 19.081 2.47169 18.7675 1.4415 18.1953V18.2859C1.4415 21.8354 3.9915 24.7882 7.3665 25.4604C6.73184 25.6307 6.07783 25.7171 5.421 25.7171C4.95493 25.718 4.48993 25.6724 4.03275 25.5812C4.971 28.4888 7.70175 30.6033 10.9365 30.6637C8.30803 32.7035 5.08096 33.806 1.7625 33.7978C1.17346 33.797 0.584974 33.7617 0 33.6921C3.37588 35.8627 7.30008 37.0109 11.3055 36.9999C24.9075 36.9999 32.3385 25.8455 32.3385 16.1713C32.3385 15.8542 32.3302 15.537 32.3153 15.2273C33.7576 14.1943 35.0054 12.9104 36 11.4362Z" fill="#E40037"/>
</svg>
