<?xml version="1.0" standalone="no"?>
<!DOCTYPE svg PUBLIC "-//W3C//DTD SVG 20010904//EN"
 "http://www.w3.org/TR/2001/REC-SVG-20010904/DTD/svg10.dtd">
<svg version="1.0" xmlns="http://www.w3.org/2000/svg"
 width="3240.000000pt" height="3240.000000pt" viewBox="0 0 3240.000000 3240.000000"
 preserveAspectRatio="xMidYMid meet">
<metadata>
Created by potrace 1.14, written by Peter Selinger 2001-2017
</metadata>
<g transform="translate(0.000000,3240.000000) scale(0.100000,-0.100000)"
fill="#000000" stroke="none">
<path d="M15567 27703 c-1 0 -81 -4 -177 -8 -96 -4 -193 -8 -215 -10 -22 -1
-85 -6 -140 -10 -55 -3 -113 -8 -130 -9 -47 -5 -197 -19 -225 -21 -14 -1 -47
-5 -75 -8 -27 -4 -75 -9 -105 -12 -30 -4 -66 -8 -80 -10 -14 -2 -44 -6 -67 -9
-24 -3 -62 -9 -85 -12 -24 -3 -86 -12 -138 -20 -90 -14 -114 -18 -177 -29 -16
-2 -44 -7 -63 -10 -19 -3 -48 -8 -65 -12 -16 -3 -39 -7 -50 -9 -17 -2 -64 -11
-150 -28 -11 -2 -56 -12 -100 -21 -44 -9 -91 -19 -105 -21 -14 -3 -126 -30
-250 -60 -124 -31 -232 -57 -240 -59 -89 -20 -478 -137 -693 -209 -258 -86
-681 -245 -814 -307 -24 -10 -45 -19 -48 -19 -31 0 -776 -362 -1000 -485 -506
-279 -955 -569 -1399 -903 -77 -58 -146 -111 -155 -118 -9 -7 -79 -63 -156
-125 -117 -93 -340 -282 -420 -356 -12 -10 -68 -61 -125 -113 -116 -104 -554
-539 -669 -665 -174 -188 -159 -171 -346 -390 -100 -116 -219 -263 -368 -455
-25 -32 -206 -279 -264 -360 -67 -94 -296 -438 -323 -485 -10 -16 -36 -59 -58
-95 -172 -274 -366 -625 -537 -975 -116 -238 -219 -465 -300 -665 -26 -63 -53
-128 -60 -145 -14 -32 -115 -293 -119 -310 -2 -5 -6 -17 -9 -25 -51 -126 -258
-785 -292 -930 -2 -8 -22 -89 -45 -180 -23 -91 -43 -172 -45 -180 -2 -8 -17
-76 -34 -150 -16 -74 -32 -146 -34 -160 -3 -14 -16 -86 -31 -160 -26 -140 -60
-342 -71 -420 -3 -25 -8 -56 -10 -70 -2 -14 -6 -45 -10 -70 -3 -25 -8 -56 -10
-70 -5 -28 -13 -99 -20 -175 -3 -27 -7 -61 -10 -75 -4 -22 -8 -63 -20 -195 -1
-16 -6 -73 -10 -125 -4 -52 -8 -111 -10 -130 -3 -35 -14 -237 -21 -380 -4 -91
-4 -801 0 -885 12 -236 18 -344 21 -370 2 -16 7 -77 10 -135 4 -58 9 -112 10
-121 2 -9 6 -52 10 -95 3 -43 8 -90 10 -104 3 -14 7 -52 10 -85 3 -33 8 -71
10 -85 2 -14 7 -43 9 -65 17 -134 62 -429 81 -525 3 -14 10 -52 15 -85 6 -33
20 -105 31 -160 12 -55 23 -109 25 -120 23 -123 126 -538 185 -745 75 -265
237 -761 279 -855 5 -11 32 -81 60 -155 28 -74 56 -146 62 -160 6 -14 14 -34
19 -45 5 -11 29 -69 55 -130 140 -336 397 -861 536 -1098 15 -26 28 -50 28
-52 0 -17 348 -588 362 -593 4 -2 8 -8 8 -14 0 -5 53 -87 117 -182 102 -149
137 -200 220 -315 52 -72 284 -376 337 -441 68 -85 257 -312 266 -320 3 -3 23
-26 45 -51 327 -372 726 -774 1070 -1075 137 -121 204 -178 285 -244 30 -25
57 -47 60 -50 11 -12 241 -191 375 -292 456 -342 972 -670 1480 -939 119 -63
498 -252 580 -289 28 -13 79 -36 115 -53 156 -71 577 -242 775 -313 39 -14
176 -61 305 -104 200 -67 269 -89 335 -106 6 -1 64 -19 130 -39 66 -19 129
-37 140 -40 11 -2 90 -23 175 -45 85 -22 164 -42 175 -44 11 -2 52 -12 90 -21
65 -15 363 -77 430 -89 188 -34 304 -54 362 -61 12 -2 34 -6 50 -9 15 -3 48
-8 73 -11 25 -3 56 -8 70 -10 24 -4 45 -7 160 -20 30 -4 66 -8 80 -10 14 -2
54 -7 90 -10 36 -3 84 -8 108 -10 127 -15 175 -19 342 -31 155 -11 183 -12
405 -20 340 -11 862 -6 1060 11 22 1 87 6 145 10 121 7 159 10 255 20 39 3 89
8 112 10 24 2 64 6 90 9 27 3 69 8 95 11 26 3 62 7 80 10 18 2 54 7 80 9 26 3
58 8 70 10 13 3 46 8 73 11 41 5 291 44 370 59 11 2 38 7 60 11 22 4 51 9 65
12 14 2 68 13 120 24 52 11 106 22 120 24 48 9 72 14 88 19 9 3 28 7 42 10 14
3 39 8 55 11 156 31 776 200 847 231 56 25 72 86 35 133 -25 30 -55 31 -144 5
-267 -78 -378 -108 -563 -154 -113 -28 -236 -58 -275 -66 -38 -9 -77 -17 -85
-19 -48 -11 -417 -82 -467 -90 -18 -3 -48 -8 -65 -11 -18 -3 -44 -7 -58 -9
-14 -2 -38 -6 -55 -9 -25 -4 -93 -14 -215 -31 -81 -11 -110 -15 -155 -20 -27
-2 -88 -9 -135 -15 -47 -5 -114 -12 -150 -15 -36 -3 -85 -7 -110 -10 -25 -2
-83 -6 -130 -10 -47 -4 -103 -8 -125 -10 -273 -24 -1078 -25 -1425 -1 -36 3
-108 7 -160 11 -52 3 -106 8 -120 10 -14 2 -59 7 -100 10 -41 3 -91 8 -110 10
-19 2 -57 7 -85 10 -63 7 -120 13 -165 20 -19 2 -55 7 -80 10 -25 3 -56 8 -70
10 -14 2 -45 7 -70 10 -64 8 -331 53 -420 70 -41 8 -86 17 -100 19 -14 2 -36
7 -50 10 -14 3 -38 8 -55 11 -95 18 -368 81 -524 121 -1237 319 -2402 840
-3456 1544 -141 94 -300 205 -375 260 -397 293 -660 507 -1004 820 -154 139
-448 431 -613 607 -495 528 -971 1142 -1323 1708 -24 39 -53 86 -66 105 -34
52 -164 270 -164 274 0 2 -18 34 -40 70 -22 36 -40 68 -40 71 0 3 -10 22 -23
43 -96 152 -392 758 -519 1062 -110 260 -228 574 -298 785 -23 72 -46 139 -51
150 -23 56 -166 549 -184 635 -2 8 -19 78 -38 155 -52 206 -127 557 -142 662
-3 21 -10 59 -15 84 -5 26 -16 93 -25 150 -8 57 -17 113 -19 125 -2 12 -7 45
-11 75 -3 30 -8 61 -10 69 -2 8 -6 40 -10 71 -3 31 -7 65 -9 75 -2 11 -7 53
-11 94 -4 41 -8 82 -10 90 -1 8 -6 56 -10 105 -4 50 -9 104 -10 120 -2 17 -6
71 -9 120 -4 50 -9 110 -11 135 -25 256 -25 1084 0 1425 2 28 6 95 10 150 4
55 8 111 11 125 2 14 6 55 9 90 6 73 12 134 31 290 4 37 25 194 50 370 3 19 9
58 14 85 5 28 11 66 14 85 3 19 10 60 16 90 6 30 13 66 15 80 4 22 51 256 76
378 5 24 11 46 13 50 2 4 7 23 10 42 13 81 116 470 195 735 118 398 332 968
501 1340 198 434 380 781 639 1217 108 182 356 559 486 739 393 543 753 966
1216 1428 254 254 380 372 618 577 19 16 39 34 45 39 15 13 125 106 149 125
11 8 24 20 31 25 77 69 482 376 676 511 139 98 418 284 424 284 3 0 31 17 63
38 258 171 878 509 1218 664 44 20 116 53 160 73 44 21 161 71 260 112 99 41
189 78 200 83 34 16 203 79 376 140 223 79 372 126 699 224 198 59 730 185
930 220 14 3 50 10 80 16 94 18 323 56 400 65 25 3 52 7 60 10 8 2 35 6 60 9
25 3 117 14 205 25 88 11 196 23 240 26 44 4 90 8 101 10 12 2 71 6 130 10 60
4 123 9 139 11 193 25 1122 25 1490 -1 147 -10 233 -17 260 -20 17 -2 62 -7
100 -10 81 -7 93 -8 315 -35 161 -20 209 -26 260 -35 14 -2 70 -11 125 -20
139 -22 158 -25 175 -30 8 -2 35 -7 60 -10 25 -3 52 -8 60 -10 8 -2 29 -7 45
-10 17 -2 41 -7 55 -10 14 -3 39 -8 55 -10 127 -23 702 -161 810 -195 17 -6
136 -42 265 -81 129 -39 335 -106 457 -150 220 -78 687 -262 707 -278 6 -5 22
-12 36 -16 13 -4 71 -30 128 -56 57 -27 106 -49 108 -49 8 0 470 -231 569
-285 211 -114 592 -335 690 -402 11 -7 90 -59 175 -115 269 -175 516 -353 770
-552 98 -77 335 -270 350 -286 3 -3 37 -32 75 -65 123 -104 299 -266 488 -447
50 -49 97 -89 104 -89 7 -1 19 -2 26 -3 41 -7 90 47 82 90 -2 11 -4 22 -4 26
-1 7 -188 190 -301 294 -35 32 -74 68 -85 79 -12 11 -55 49 -95 85 -40 36 -78
70 -84 75 -6 6 -65 55 -131 111 -908 761 -1861 1345 -2935 1798 -107 46 -222
93 -255 105 -33 13 -69 27 -80 32 -133 58 -664 237 -945 318 -284 81 -742 192
-940 227 -14 3 -32 7 -40 9 -8 2 -31 7 -50 10 -19 3 -109 19 -200 35 -91 16
-217 36 -280 45 -63 9 -126 18 -140 20 -14 2 -50 7 -80 10 -30 3 -66 8 -80 10
-14 2 -54 7 -90 10 -36 4 -76 8 -90 10 -14 1 -63 6 -110 10 -47 3 -96 8 -110
10 -14 2 -72 7 -130 11 -58 4 -123 8 -145 9 -197 14 -1008 28 -1018 18z"/>
<path d="M25034 25423 c22 -150 77 -267 205 -433 66 -86 232 -256 343 -353 34
-29 96 -102 142 -167 375 -529 571 -949 641 -1370 3 -19 8 -42 10 -50 2 -8 7
-35 10 -60 7 -52 14 -95 20 -130 2 -14 7 -47 10 -75 16 -137 57 -433 70 -505
3 -14 7 -38 10 -55 27 -169 85 -379 143 -522 44 -109 65 -151 148 -293 103
-176 302 -776 368 -1110 7 -35 24 -120 31 -150 3 -14 7 -40 10 -59 2 -18 6
-41 9 -50 3 -9 7 -38 11 -66 3 -27 12 -90 20 -140 8 -49 16 -119 19 -155 3
-36 8 -81 11 -100 30 -230 40 -468 40 -945 -1 -409 -4 -580 -12 -597 -6 -12
-507 976 -607 1197 -115 253 -264 646 -282 743 -3 13 -11 42 -18 65 -24 73
-72 300 -101 477 -3 19 -8 42 -10 50 -2 8 -6 27 -9 42 -29 170 -144 516 -256
768 -146 330 -405 763 -674 1125 -215 290 -236 315 -384 462 -81 82 -116 100
-129 67 -3 -8 13 -70 36 -137 37 -110 83 -276 96 -346 9 -50 34 -196 39 -231
4 -32 9 -80 21 -195 11 -109 17 -323 21 -770 2 -269 6 -515 8 -545 7 -96 16
-194 21 -225 38 -253 59 -344 112 -510 81 -251 223 -521 389 -737 112 -145
158 -195 419 -455 297 -296 411 -395 619 -541 100 -70 176 -134 275 -232 205
-204 296 -302 315 -340 26 -52 54 -130 60 -170 3 -19 8 -46 12 -60 9 -39 11
-305 3 -395 -10 -110 -19 -200 -23 -222 -2 -10 -7 -40 -10 -68 -4 -27 -15
-100 -26 -161 -11 -61 -22 -129 -25 -150 -4 -21 -10 -55 -15 -74 -5 -19 -11
-51 -14 -70 -3 -19 -12 -64 -20 -100 -8 -36 -17 -81 -20 -100 -3 -19 -8 -46
-11 -60 -3 -14 -10 -54 -16 -90 -17 -109 -19 -121 -45 -240 -14 -63 -27 -124
-30 -135 -17 -87 -134 -562 -199 -810 -225 -863 -563 -1828 -905 -2585 -101
-223 -334 -691 -425 -853 -36 -64 -65 -122 -65 -127 0 -6 -4 -10 -9 -10 -5 0
4 37 21 83 66 176 158 531 174 667 3 30 8 57 9 60 2 3 6 37 10 75 4 39 9 79
11 90 24 128 24 846 0 1050 -2 17 -7 71 -10 120 -4 50 -9 108 -11 130 -4 37
-7 73 -20 230 -3 33 -7 78 -9 100 -3 22 -8 81 -11 130 -4 50 -8 110 -10 135
-2 25 -7 90 -10 145 -20 314 -20 680 0 895 17 179 6 412 -30 640 -14 84 -25
161 -31 205 -3 28 -8 59 -11 70 -2 11 -6 92 -8 180 -7 267 -15 459 -19 485 -3
14 -7 50 -10 80 -33 299 -130 557 -392 1040 -210 388 -280 558 -369 898 -52
200 -84 292 -101 292 -8 0 -15 -6 -16 -12 -3 -31 -6 -69 -12 -158 -19 -304
-30 -371 -126 -805 -16 -71 -31 -141 -34 -155 -2 -14 -22 -113 -44 -220 -22
-107 -43 -208 -45 -225 -49 -290 -62 -386 -72 -515 -9 -119 -23 -280 -30 -360
-2 -25 -7 -76 -10 -115 -3 -38 -8 -92 -10 -120 -16 -182 -20 -289 -20 -510 0
-319 14 -469 61 -663 65 -267 196 -533 351 -712 12 -14 30 -35 41 -48 11 -12
69 -75 128 -139 225 -239 329 -360 426 -493 76 -105 94 -134 153 -245 77 -145
134 -329 152 -490 17 -146 4 -582 -22 -760 -2 -16 -7 -52 -11 -80 -5 -42 -42
-241 -57 -310 -56 -251 -160 -585 -331 -1069 -109 -306 -111 -310 -188 -466
-74 -149 -114 -219 -205 -359 -170 -262 -609 -832 -798 -1037 -5 -6 -32 -37
-60 -70 -27 -32 -66 -77 -86 -99 -20 -22 -47 -53 -60 -69 -13 -16 -29 -34 -35
-40 -5 -6 -50 -56 -98 -111 -89 -101 -207 -231 -326 -360 -35 -38 -69 -75 -75
-81 -135 -148 -303 -322 -525 -544 -323 -323 -391 -388 -605 -580 -202 -180
-208 -185 -280 -245 -33 -28 -62 -53 -65 -56 -16 -17 -304 -247 -469 -373 -18
-14 -21 -18 89 154 111 173 180 290 235 398 24 48 54 98 67 112 13 14 59 66
103 115 146 164 214 234 415 427 25 24 76 79 115 123 45 52 109 109 184 164
383 278 475 353 671 551 347 349 559 596 655 763 15 26 46 61 69 76 66 46 115
107 156 195 50 107 63 153 44 160 -7 3 -16 1 -19 -5 -13 -21 -22 3 -18 48 l4
48 -31 -35 c-65 -73 -154 -197 -178 -249 -17 -38 -25 -72 -26 -120 l-1 -67
-75 -100 c-74 -98 -190 -241 -260 -319 -66 -75 -315 -321 -405 -401 -149 -133
-431 -355 -503 -398 -8 -5 24 41 71 100 149 193 332 477 460 714 25 47 69 128
97 180 65 122 274 540 325 650 21 47 74 159 117 249 43 90 78 167 78 171 0 4
13 25 29 47 33 45 76 62 180 69 140 11 263 56 370 137 63 47 141 126 151 152
3 7 33 43 68 80 68 71 88 105 79 129 -8 21 -33 20 -65 -3 -27 -19 -302 -114
-310 -107 -2 2 2 22 7 44 24 87 11 288 -26 413 -22 74 -28 86 -44 82 -29 -8
-90 -84 -160 -200 -34 -56 -62 -103 -63 -103 -1 0 -2 34 -3 75 -1 84 -19 150
-66 245 -49 99 -80 91 -92 -25 -11 -109 -27 -169 -81 -315 -71 -194 -87 -264
-80 -366 5 -86 29 -163 70 -224 l25 -38 -64 -128 c-36 -70 -70 -133 -77 -141
-20 -24 -73 -127 -218 -418 -77 -154 -155 -307 -173 -340 -18 -33 -57 -105
-86 -160 -220 -411 -538 -850 -919 -1267 -114 -125 -372 -393 -372 -386 0 3
39 85 86 184 201 416 394 872 564 1324 34 91 65 174 70 185 31 74 237 688 284
847 14 46 48 160 76 253 58 194 105 372 114 430 10 61 64 300 87 385 107 388
245 688 473 1030 61 93 339 467 355 480 4 3 56 68 116 145 60 77 112 142 115
145 3 3 27 33 53 66 26 35 71 78 104 99 100 66 196 139 236 179 73 75 207 343
203 406 -2 40 -36 37 -96 -11 -32 -25 -51 -35 -47 -25 9 22 21 126 15 126 -2
0 -33 -27 -68 -60 -36 -33 -74 -63 -85 -66 -34 -11 -144 -104 -174 -148 -50
-72 -63 -127 -63 -269 0 -152 -5 -163 -115 -284 -65 -70 -292 -335 -432 -503
-30 -36 -52 -56 -49 -45 4 11 42 115 86 230 96 254 141 393 178 545 22 92 34
121 57 145 16 17 41 47 55 69 25 37 26 43 26 197 1 130 -2 161 -15 174 -17 17
-6 26 -109 -85 -33 -36 -66 -79 -74 -95 -35 -72 -23 -187 23 -246 l30 -37 -29
-110 c-16 -60 -44 -147 -61 -193 -81 -218 -120 -319 -144 -374 -15 -32 -49
-122 -77 -200 -55 -155 -90 -229 -147 -314 -21 -31 -48 -76 -62 -101 -13 -25
-26 -47 -29 -50 -3 -3 -25 -47 -49 -97 -25 -51 -46 -91 -47 -90 -1 1 8 45 21
97 24 103 88 409 104 505 18 103 21 119 26 145 3 14 10 57 16 97 5 39 11 80
13 90 5 26 15 92 21 143 3 25 8 52 10 60 2 8 7 44 10 80 4 36 8 72 10 80 2 8
6 44 10 80 3 36 8 76 10 90 2 14 6 54 10 90 3 36 8 81 10 100 4 33 10 98 20
215 2 28 7 93 10 145 3 52 8 111 10 130 2 19 7 107 10 195 4 88 8 161 9 162 1
1 33 7 71 13 92 15 163 48 225 106 82 77 160 216 194 347 8 29 35 93 60 141
43 81 56 125 39 127 -5 0 -19 3 -32 5 -33 6 -124 -88 -214 -221 -71 -105 -115
-160 -123 -153 -2 3 0 25 4 50 9 44 7 159 -2 229 -21 151 -98 419 -120 419
-15 0 -36 -40 -56 -105 -7 -22 -26 -61 -42 -87 -16 -26 -40 -78 -54 -115 -20
-59 -23 -84 -21 -189 l2 -121 -35 65 c-41 75 -111 158 -190 224 -90 75 -267
190 -286 186 -58 -11 -79 -168 -34 -262 13 -27 47 -82 76 -122 29 -41 50 -74
46 -74 -4 0 -27 7 -52 16 -92 33 -236 74 -257 74 -34 0 -29 -28 20 -103 23
-36 58 -94 77 -129 48 -86 108 -149 175 -182 31 -15 118 -43 193 -62 75 -19
163 -44 195 -56 l58 -21 -6 -126 c-4 -69 -8 -153 -10 -186 -3 -33 -7 -98 -10
-145 -3 -47 -7 -98 -10 -115 -2 -16 -7 -66 -10 -110 -4 -44 -8 -91 -10 -105
-2 -14 -7 -52 -10 -85 -4 -33 -8 -71 -10 -85 -2 -14 -7 -52 -11 -85 -3 -33 -8
-67 -9 -75 -2 -8 -6 -40 -10 -70 -4 -30 -17 -122 -31 -205 -13 -82 -26 -167
-29 -189 -4 -21 -9 -48 -11 -60 -2 -11 -11 -59 -19 -106 -9 -47 -17 -92 -20
-100 -2 -8 -6 -26 -9 -40 -14 -84 -50 -249 -53 -247 -2 3 -21 103 -37 207 -9
57 -15 92 -26 150 -56 307 -71 392 -89 500 -21 128 -25 158 -36 245 -4 28 -8
61 -11 75 -2 14 -7 79 -11 146 -5 99 -3 125 10 145 23 36 47 127 47 178 0 25
-9 73 -19 106 -25 78 -88 215 -99 215 -13 0 -69 -125 -87 -195 -32 -124 -8
-233 68 -301 l41 -38 2 -100 c1 -88 8 -192 19 -276 13 -103 17 -127 20 -140 2
-8 7 -37 10 -65 4 -27 8 -57 10 -65 2 -8 7 -31 10 -50 3 -19 14 -80 25 -135
10 -55 26 -143 35 -195 9 -52 18 -106 20 -120 3 -14 7 -50 11 -80 3 -30 8 -63
10 -73 6 -31 17 -191 17 -242 0 -43 -23 -222 -37 -291 -2 -12 -7 -37 -10 -55
-17 -108 -66 -349 -96 -479 -12 -52 -23 -102 -25 -111 -2 -9 -28 -113 -59
-231 -147 -567 -348 -1167 -673 -2008 -25 -63 -52 -134 -60 -158 -8 -24 -17
-42 -19 -40 -1 2 6 60 16 128 10 69 22 157 25 195 4 39 9 77 10 86 2 9 6 56
10 105 4 49 8 105 10 124 10 98 18 339 17 535 0 212 -10 547 -17 585 -2 11 1
36 7 57 6 21 39 155 73 298 142 586 177 711 211 737 35 28 62 87 58 129 -5 50
-51 194 -68 208 -16 14 -29 1 -51 -52 -31 -75 -37 -188 -13 -248 21 -50 -9
-183 -159 -701 -37 -130 -70 -234 -73 -232 -2 3 -5 46 -6 97 -5 227 -19 551
-29 667 -12 134 -17 187 -21 210 -2 14 -7 57 -10 97 l-6 71 58 12 c122 25 231
97 302 202 61 89 113 247 127 386 4 35 8 71 10 81 3 18 8 165 6 189 -2 24 -31
11 -55 -25 -13 -21 -53 -69 -89 -107 -72 -75 -71 -75 -82 19 -21 175 -50 285
-75 285 -20 0 -192 -327 -232 -440 -21 -59 -22 -62 -39 -130 -17 -68 -17 -72
-19 -110 -1 -33 -2 -31 -32 35 -60 135 -155 256 -249 317 -27 17 -49 34 -49
38 0 12 -110 72 -142 76 -18 3 -38 7 -44 9 -6 2 -17 -1 -25 -5 -14 -9 -2 -43
99 -277 l40 -92 -75 35 c-41 18 -97 52 -125 74 -28 22 -67 45 -87 51 -43 13
-123 8 -128 -7 -2 -6 16 -32 40 -57 29 -30 66 -89 108 -174 100 -201 188 -275
403 -338 49 -14 98 -27 110 -29 11 -3 46 -10 76 -15 112 -22 115 -24 118 -85
1 -29 5 -64 7 -77 3 -13 8 -51 11 -84 3 -33 8 -71 10 -85 3 -14 7 -180 9 -370
5 -377 12 -628 21 -675 3 -16 3 -27 1 -25 -18 19 -274 537 -301 607 -31 82
-33 94 -30 188 4 103 -6 153 -43 231 -25 55 -94 164 -103 164 -16 0 -31 -30
-48 -91 -44 -159 5 -307 129 -390 15 -10 39 -52 63 -110 33 -79 117 -267 221
-494 64 -140 105 -275 121 -395 5 -41 5 -379 0 -430 -2 -19 -7 -84 -11 -145
-4 -60 -8 -126 -10 -145 -2 -19 -6 -71 -10 -116 -3 -44 -7 -89 -9 -100 -2 -10
-7 -48 -11 -84 -4 -36 -9 -74 -11 -85 -2 -11 -7 -40 -10 -65 -3 -25 -7 -57
-10 -72 -9 -61 -15 -94 -19 -118 -3 -14 -7 -41 -10 -60 -3 -19 -13 -73 -21
-120 -9 -47 -18 -96 -20 -110 -34 -193 -47 -236 -130 -408 -46 -96 -84 -175
-84 -177 0 -6 -144 -304 -232 -480 -164 -327 -226 -436 -397 -695 -75 -113
-156 -239 -181 -280 -24 -41 -60 -91 -80 -110 -47 -46 -79 -93 -90 -131 -8
-27 -6 -35 21 -61 25 -25 35 -29 68 -25 61 7 106 37 421 286 438 346 404 316
710 611 472 454 605 551 950 693 186 76 491 166 655 193 11 1 30 5 41 8 12 2
39 7 60 10 22 4 64 11 94 16 78 13 154 25 238 35 117 14 130 16 257 29 22 3
85 10 140 16 144 16 173 19 240 25 33 3 71 7 85 10 14 2 50 7 80 10 30 3 66 8
80 10 14 2 45 7 70 10 52 7 84 12 160 25 30 5 71 12 90 15 250 42 508 121 695
214 360 179 662 441 1063 921 66 80 156 179 199 221 131 127 316 337 398 453
11 16 29 40 41 55 75 96 253 379 374 596 154 275 498 1014 675 1450 192 470
499 1006 844 1470 376 506 968 1129 1159 1220 35 18 43 45 12 45 -11 0 -37 -7
-57 -15 -21 -8 -96 -35 -168 -61 -161 -57 -389 -146 -473 -185 -35 -16 -66
-29 -68 -29 -7 0 -73 -31 -204 -93 -58 -28 -107 -51 -110 -52 -3 0 -34 -16
-70 -35 -36 -19 -69 -37 -75 -39 -20 -8 -242 -135 -293 -167 -29 -19 -55 -34
-57 -34 -10 0 -262 -174 -356 -246 -226 -173 -466 -401 -753 -714 -95 -104
-371 -437 -556 -670 -159 -201 -409 -511 -420 -520 -25 -21 -451 -572 -502
-650 -10 -14 -45 -63 -79 -110 -119 -163 -287 -408 -534 -775 -575 -857 -746
-1102 -1024 -1469 -147 -194 -184 -228 -371 -342 -231 -140 -504 -268 -975
-456 -326 -131 -512 -208 -609 -253 -43 -20 -80 -34 -82 -32 -2 2 17 26 43 54
27 27 107 112 178 188 72 76 152 161 179 189 49 52 233 248 295 315 18 20 52
56 75 81 61 65 312 345 376 419 30 35 60 69 65 75 6 6 36 43 68 81 32 39 68
81 81 95 12 14 71 88 132 165 264 333 465 624 654 945 57 96 143 236 190 310
75 117 306 494 405 660 222 373 451 834 626 1260 35 85 107 243 161 352 86
173 109 212 203 328 94 118 191 236 205 250 3 3 20 23 39 45 175 205 452 484
628 631 66 56 181 147 254 201 432 320 708 648 1172 1394 142 228 180 300 272
514 50 115 125 362 154 505 6 30 14 66 17 80 6 32 21 123 29 180 4 25 8 59 11
76 35 228 39 777 9 1139 -2 22 -6 76 -10 120 -3 44 -8 96 -10 115 -2 19 -7 64
-11 100 -11 109 -11 113 -18 165 -10 75 -15 124 -22 185 -3 30 -7 66 -9 80
-13 84 -36 272 -40 320 -1 25 -6 83 -9 130 -4 47 -9 110 -11 140 -3 30 -7 96
-10 145 -7 99 -13 182 -20 265 -2 30 -7 93 -10 140 -4 47 -8 105 -10 130 -2
25 -7 81 -10 125 -9 115 -17 207 -36 420 -15 169 -19 207 -23 250 -3 22 -8 74
-12 115 -3 41 -7 82 -9 90 -1 8 -6 44 -9 80 -4 36 -9 81 -11 100 -3 19 -7 60
-10 90 -3 30 -8 71 -10 90 -3 19 -7 60 -10 90 -3 30 -7 62 -10 70 -2 8 -7 44
-10 80 -8 72 -12 83 -27 74 -31 -19 -85 -200 -139 -464 -22 -107 -50 -226 -61
-265 -22 -74 -97 -236 -171 -370 -24 -44 -67 -122 -95 -174 -77 -140 -274
-558 -286 -606 -1 -5 -10 -28 -20 -50 -94 -212 -302 -802 -330 -937 -3 -13
-12 -48 -21 -78 -14 -53 -78 -332 -90 -395 -47 -257 -69 -450 -69 -605 1 -122
12 -358 18 -400 3 -14 7 -67 11 -118 3 -51 8 -101 10 -110 1 -9 6 -53 10 -96
4 -43 8 -88 10 -98 2 -11 7 -47 10 -81 3 -35 7 -71 9 -82 2 -11 7 -51 11 -90
4 -38 8 -83 10 -100 2 -16 7 -50 10 -75 3 -25 8 -70 10 -100 3 -30 7 -77 10
-105 16 -151 28 -355 28 -460 0 -85 -11 -254 -17 -264 -2 -3 -7 -28 -10 -54
-12 -88 -103 -303 -152 -358 -8 -8 -14 -19 -14 -23 0 -4 -23 -42 -52 -84 -148
-220 -165 -259 -238 -552 -66 -265 -101 -348 -238 -560 -63 -97 -251 -353
-272 -370 -3 -3 -53 -63 -110 -135 -58 -71 -111 -137 -117 -145 -7 -8 -40 -50
-73 -94 -33 -43 -60 -77 -60 -75 0 2 14 42 31 89 107 295 231 672 328 995 172
575 360 1354 426 1765 3 19 8 42 10 50 2 8 7 31 9 50 3 19 14 87 25 150 11 63
23 138 27 165 3 28 7 57 9 65 4 24 14 92 20 140 4 25 8 56 10 70 2 14 6 48 9
75 4 28 8 61 11 75 2 14 7 52 10 85 3 33 7 71 10 85 2 14 7 57 10 95 3 39 8
88 10 110 7 69 17 178 20 225 9 136 16 251 20 300 22 277 22 1053 0 1350 -2
25 -6 90 -10 145 -3 55 -8 118 -10 140 -2 22 -7 78 -10 125 -4 47 -8 92 -10
100 -2 8 -7 51 -11 95 -3 44 -7 82 -9 85 -2 3 -6 34 -10 70 -3 36 -8 72 -10
80 -2 8 -7 40 -10 70 -3 30 -8 66 -10 80 -14 80 -35 216 -40 270 -3 30 -8 75
-11 100 -6 50 -6 486 0 540 2 19 7 87 11 150 4 63 9 133 11 155 11 164 0 560
-21 745 -2 19 -7 60 -10 90 -3 30 -8 66 -10 80 -2 14 -7 43 -10 65 -3 23 -7
52 -10 65 -3 13 -7 42 -10 65 -9 63 -75 351 -101 445 -124 434 -302 825 -513
1125 -194 276 -465 537 -705 677 -38 22 -130 84 -206 138 -75 54 -191 130
-256 170 -212 130 -277 186 -364 316 -72 106 -96 122 -86 57z m517 -580 c13
-16 12 -17 -3 -4 -17 13 -22 21 -14 21 2 0 10 -8 17 -17z m176 -128 c159 -114
155 -112 207 -141 159 -89 375 -286 523 -477 273 -355 460 -810 665 -1621 67
-265 83 -424 82 -801 0 -215 -11 -495 -19 -503 -4 -4 -16 80 -20 149 -3 50 -6
92 -21 259 -3 36 -7 76 -9 90 -2 14 -7 52 -10 85 -4 33 -8 71 -10 85 -5 43
-16 134 -20 160 -2 14 -7 48 -10 75 -3 28 -7 61 -10 75 -2 14 -6 43 -9 65 -7
46 -17 113 -21 135 -43 236 -64 325 -107 460 -53 166 -111 299 -210 480 -14
25 -38 70 -55 100 -32 59 -96 178 -169 318 -105 199 -214 366 -308 474 -66 75
-206 228 -282 308 -44 47 -112 118 -150 159 -38 41 -91 91 -117 113 -82 64
-45 43 80 -47z m438 -657 c31 -42 79 -114 106 -160 73 -121 429 -843 482 -978
49 -125 96 -292 123 -435 9 -49 18 -99 20 -110 2 -11 6 -31 8 -45 3 -14 8 -45
11 -70 3 -25 7 -56 9 -70 4 -24 13 -88 21 -155 5 -41 13 -108 20 -180 4 -33 8
-71 11 -85 2 -14 6 -56 9 -95 4 -38 8 -81 10 -95 2 -14 6 -54 10 -90 3 -36 12
-117 20 -180 8 -63 17 -135 20 -160 3 -25 7 -54 9 -65 19 -101 13 -101 -22 0
-54 153 -81 214 -231 528 -33 70 -61 130 -61 133 0 3 -11 29 -24 57 -34 75
-96 263 -100 306 -3 20 -12 90 -20 156 -9 66 -19 140 -21 165 -3 25 -8 59 -10
76 -3 17 -8 53 -11 80 -3 27 -7 60 -9 74 -4 33 -24 168 -29 200 -2 14 -10 59
-16 100 -7 41 -14 84 -17 95 -2 11 -8 43 -14 70 -6 28 -12 61 -15 75 -3 14
-18 77 -34 140 -84 336 -175 546 -366 850 -29 45 54 -53 111 -132z m-936
-1668 c24 -36 108 -153 186 -260 377 -518 486 -715 571 -1039 20 -75 37 -143
39 -151 19 -89 212 -789 261 -950 179 -581 361 -1022 577 -1402 31 -54 54 -98
52 -98 -6 0 -215 302 -316 455 -363 550 -574 990 -694 1445 -27 104 -40 165
-60 285 -3 17 -7 39 -9 50 -2 11 -7 47 -10 80 -16 150 -18 169 -21 179 -1 6
-5 29 -9 51 -41 217 -137 439 -376 870 -135 243 -210 394 -263 530 -51 131
-53 147 -11 80 21 -33 58 -89 83 -125z m51 -417 c38 -84 107 -228 153 -320 46
-93 97 -197 112 -233 15 -36 33 -78 40 -95 23 -53 72 -209 84 -265 19 -92 20
-100 26 -174 12 -142 23 -244 29 -282 3 -16 8 -47 11 -69 31 -203 119 -495
223 -740 159 -377 458 -869 799 -1318 39 -51 41 -56 19 -45 -14 6 -26 15 -26
20 0 4 -4 8 -10 8 -13 0 -259 176 -280 200 -3 3 -27 24 -54 45 -128 103 -383
352 -498 487 -390 454 -639 972 -713 1478 -3 19 -8 53 -11 75 -11 71 -13 448
-3 510 17 97 13 407 -6 562 -2 15 -6 64 -10 108 -3 44 -8 91 -10 105 -2 14 -7
72 -10 130 l-7 105 36 -70 c20 -38 68 -139 106 -222z m3514 -1160 c-3 -21 -7
-49 -9 -63 -3 -14 -12 -77 -20 -140 -17 -120 -22 -159 -30 -200 -2 -14 -7 -45
-10 -70 -4 -25 -8 -56 -10 -70 -2 -14 -7 -45 -10 -70 -3 -25 -10 -70 -15 -100
-5 -30 -11 -73 -14 -95 -3 -22 -16 -119 -30 -215 -43 -289 -64 -436 -72 -495
-3 -22 -8 -53 -10 -70 -3 -16 -7 -43 -10 -60 -2 -16 -6 -48 -9 -70 -4 -22 -8
-52 -11 -67 -2 -16 -6 -40 -8 -55 -3 -16 -8 -48 -11 -73 -3 -25 -10 -70 -15
-100 -5 -30 -11 -71 -14 -90 -10 -75 -17 -117 -20 -137 -3 -12 -8 -43 -12 -70
-3 -26 -8 -57 -10 -68 -3 -11 -7 -39 -10 -61 -2 -23 -6 -51 -9 -62 -2 -11 -7
-42 -11 -69 -5 -26 -9 -50 -9 -53 -1 -3 -5 -30 -9 -60 -5 -30 -10 -64 -12 -75
-3 -11 -7 -38 -9 -60 -3 -22 -10 -65 -16 -95 -9 -48 -29 -169 -44 -265 -3 -16
-7 -41 -10 -55 -3 -14 -8 -45 -11 -70 -3 -24 -7 -47 -10 -51 -2 -4 -6 -24 -9
-45 -3 -22 -7 -50 -10 -64 -11 -57 -15 -77 -21 -115 -3 -22 -7 -49 -9 -60 -2
-11 -13 -69 -24 -130 -26 -137 -31 -164 -37 -195 -2 -14 -9 -47 -14 -75 -5
-27 -12 -61 -14 -75 -3 -14 -12 -63 -21 -110 -9 -47 -19 -96 -22 -110 -2 -14
-22 -109 -43 -212 -22 -103 -42 -200 -45 -216 -3 -17 -9 -41 -14 -54 -8 -20
-10 -17 -11 22 -1 25 -3 52 -4 60 -2 8 -7 51 -10 95 -4 44 -9 91 -11 105 -4
25 -10 78 -20 180 -3 30 -8 71 -10 90 -3 19 -7 60 -10 90 -4 30 -8 66 -10 80
-2 14 -6 54 -10 90 -4 36 -8 76 -10 90 -2 14 -6 55 -10 92 -3 37 -8 75 -10 86
-2 10 -6 56 -10 103 -4 46 -9 92 -10 101 -2 10 -7 58 -10 107 -3 49 -7 98 -9
108 -3 11 -7 73 -11 139 -24 384 16 758 126 1199 87 349 229 736 439 1195 63
139 401 820 407 820 1 0 0 -17 -3 -37z m131 -76 c3 -60 8 -123 10 -140 2 -18
6 -75 10 -127 10 -146 15 -192 36 -320 6 -36 13 -87 14 -115 8 -109 17 -242
20 -270 1 -16 6 -70 10 -119 3 -48 8 -96 10 -107 2 -10 6 -49 10 -86 3 -37 10
-102 15 -143 5 -41 12 -100 15 -130 3 -30 8 -66 10 -80 2 -14 6 -50 10 -80 4
-30 8 -66 10 -80 2 -14 7 -54 10 -90 4 -36 8 -72 10 -80 2 -8 6 -49 10 -90 3
-41 8 -82 10 -90 2 -8 7 -47 10 -87 4 -40 8 -85 10 -100 2 -15 6 -66 10 -113
4 -47 8 -96 10 -110 26 -181 26 -969 0 -1110 -1 -8 -6 -40 -9 -71 -4 -31 -8
-65 -10 -75 -2 -11 -7 -39 -11 -64 -34 -228 -107 -492 -177 -648 -15 -34 -28
-65 -28 -68 0 -2 -30 -66 -66 -142 -111 -227 -290 -527 -426 -712 -36 -48
-251 -325 -257 -330 -3 -3 -35 -39 -71 -80 -35 -41 -86 -97 -112 -125 -25 -27
-64 -68 -85 -91 -21 -23 -58 -57 -83 -76 -63 -49 -361 -250 -364 -246 -2 1 24
50 56 108 144 253 300 601 418 930 42 117 147 455 166 533 2 9 6 26 9 37 3 11
7 28 9 38 2 9 12 46 21 82 9 36 19 72 21 80 7 27 63 274 68 300 3 14 7 36 10
50 3 14 15 75 26 135 12 61 25 130 30 155 5 25 17 88 25 140 9 52 18 106 20
120 2 14 7 43 10 65 3 22 10 63 15 90 5 28 12 73 15 100 3 28 10 73 15 100 5
28 12 73 15 100 12 88 14 109 19 145 3 19 8 55 11 80 3 25 8 56 10 70 3 14 7
50 10 80 3 30 8 66 10 80 4 28 15 118 20 165 2 17 9 64 14 105 6 41 14 93 17
115 3 22 7 51 9 65 2 14 11 72 20 130 9 58 18 116 20 130 2 14 11 70 20 125 9
55 18 111 20 125 2 14 7 42 10 64 4 21 8 46 10 55 1 9 6 36 10 61 4 25 9 54
11 65 3 11 7 39 10 61 2 23 7 53 10 65 2 13 7 40 10 59 3 19 7 42 9 50 2 8 7
38 11 65 3 28 7 57 9 65 1 8 6 35 10 60 4 25 9 52 10 60 2 8 8 51 15 95 7 44
14 89 16 99 2 11 8 56 14 100 6 45 13 92 15 106 3 14 9 61 15 105 6 44 13 91
15 105 9 64 15 109 20 160 4 30 8 66 10 80 5 29 10 79 21 205 4 50 9 93 10 98
1 4 2 17 3 29 3 48 10 7 16 -95z m-4320 -2407 c9 -187 26 -405 40 -515 5 -37
13 -104 21 -170 5 -48 37 -268 48 -330 3 -16 12 -73 21 -125 9 -52 27 -149 40
-215 13 -66 26 -131 28 -145 22 -119 161 -738 202 -900 8 -30 16 -66 19 -80 2
-14 34 -151 71 -305 37 -154 70 -300 75 -325 5 -25 23 -104 39 -177 17 -72 32
-142 35 -155 2 -12 18 -90 35 -173 17 -82 33 -163 36 -180 3 -16 12 -68 21
-115 8 -47 17 -96 19 -110 12 -61 39 -236 49 -315 3 -22 10 -76 16 -119 6 -44
8 -81 5 -84 -3 -3 -5 0 -5 6 0 27 -119 191 -235 323 -26 30 -114 124 -195 209
-359 379 -458 517 -568 797 -69 173 -94 315 -94 518 0 305 15 913 27 1095 6
83 16 207 20 230 2 14 7 54 10 90 4 36 8 76 10 90 2 14 7 50 10 80 3 30 8 66
10 80 2 14 7 45 10 70 3 25 10 70 15 100 5 30 11 73 14 95 3 22 17 110 31 195
14 85 28 171 31 190 3 19 7 42 10 51 2 9 7 34 9 55 3 22 10 71 15 109 6 39 13
86 15 105 3 19 7 44 9 55 3 11 8 42 12 68 3 26 8 46 10 44 2 -1 6 -54 9 -117z
m274 -373 c28 -49 51 -91 51 -94 0 -3 17 -33 38 -67 40 -63 133 -247 166 -326
10 -25 24 -58 31 -75 29 -69 96 -282 109 -345 3 -14 14 -70 25 -125 11 -55 23
-122 26 -150 4 -27 8 -60 10 -73 9 -58 17 -209 20 -385 2 -106 6 -203 9 -217
3 -14 10 -61 16 -106 6 -44 12 -89 14 -100 2 -10 7 -41 10 -69 3 -27 11 -81
16 -120 21 -153 28 -359 16 -470 -3 -27 -8 -90 -12 -140 -7 -94 -10 -140 -14
-165 -1 -13 -18 44 -34 115 -8 39 -156 622 -206 815 -65 247 -119 459 -125
485 -6 32 -12 55 -34 145 -31 130 -49 210 -87 395 -19 94 -36 179 -39 190 -9
43 -46 242 -51 275 -3 19 -7 37 -9 40 -2 3 -7 33 -10 65 -4 33 -9 62 -10 65
-2 3 -7 33 -10 65 -4 33 -9 62 -10 65 -2 3 -6 33 -10 67 -3 34 -8 71 -10 82
-2 11 -7 51 -10 88 -4 37 -8 78 -10 91 -2 12 -7 64 -10 115 -3 50 -8 110 -10
132 -4 34 3 24 49 -70 29 -61 76 -150 105 -198z m2875 -2674 c-14 -32 -33 -74
-41 -93 -8 -19 -33 -73 -54 -118 -22 -46 -39 -85 -39 -87 0 -2 -15 -36 -34
-77 -18 -40 -46 -102 -61 -138 -46 -111 -51 -99 -18 45 19 83 59 184 110 274
40 74 153 251 159 251 2 0 -8 -26 -22 -57z m-4159 -366 c46 -217 50 -302 20
-452 -10 -50 -60 -147 -100 -192 -20 -24 -40 -43 -43 -43 -4 0 -8 50 -9 111
-1 60 -9 156 -18 212 -27 159 -19 211 56 362 34 69 64 123 66 121 2 -2 15 -55
28 -119z m-656 8 c112 -66 267 -193 320 -262 42 -54 105 -222 136 -363 14 -62
25 -119 25 -127 0 -24 -17 -13 -30 20 -8 18 -78 96 -161 177 -101 100 -169
178 -220 250 -40 58 -78 111 -85 117 -14 15 -31 63 -38 113 -6 38 3 103 13 98
3 -2 21 -12 40 -23z m943 -382 c-49 -133 -94 -214 -152 -273 -54 -55 -130
-100 -170 -100 -18 0 -16 7 22 61 24 34 73 94 111 133 37 39 99 115 139 168
40 54 74 96 75 94 2 -2 -9 -39 -25 -83z m-972 -17 c119 -51 179 -95 343 -248
103 -96 135 -136 101 -125 -333 100 -397 126 -457 182 -45 43 -93 113 -123
182 l-25 56 43 -7 c23 -4 76 -22 118 -40z m7139 -373 c-7 -10 -37 -43 -65 -73
-220 -235 -462 -532 -668 -820 -97 -134 -288 -422 -319 -480 -8 -14 -56 -99
-108 -190 -162 -281 -294 -557 -444 -925 -32 -77 -127 -281 -212 -454 -85
-173 -178 -367 -205 -430 -106 -244 -255 -518 -401 -736 -64 -95 -215 -307
-226 -315 -3 -3 -19 -23 -36 -45 -16 -22 -31 -42 -35 -45 -3 -3 -30 -36 -61
-75 -31 -38 -66 -81 -79 -95 -12 -14 -40 -47 -63 -74 -23 -27 -55 -63 -70 -80
-257 -280 -486 -508 -847 -845 -192 -180 -484 -327 -821 -415 -74 -19 -146
-37 -162 -40 -15 -3 -53 -10 -85 -15 -115 -21 -204 -33 -324 -45 -127 -13
-167 -16 -253 -21 -49 -3 -121 -8 -160 -10 -38 -2 -142 -7 -230 -10 -88 -3
-180 -7 -205 -10 l-45 -4 55 21 c30 11 64 24 75 29 11 4 61 24 110 44 344 139
748 410 1104 743 162 151 378 371 531 542 41 46 86 95 100 110 14 15 57 63 95
106 39 43 77 85 85 94 8 9 42 47 75 85 33 39 145 156 250 261 282 285 444 454
610 638 39 43 84 93 100 111 27 28 94 105 155 175 12 14 36 41 53 60 18 19 57
64 87 100 30 36 57 67 60 70 6 5 199 232 289 340 21 25 82 97 135 160 101 118
201 264 396 575 149 237 382 589 461 695 55 74 244 314 274 347 5 6 44 50 85
97 85 96 377 387 490 487 76 67 243 208 315 265 22 18 63 50 90 72 56 46 63
50 44 25z m-289 -114 c-14 -11 -34 -28 -45 -37 -11 -9 -43 -35 -70 -57 -28
-21 -52 -42 -55 -45 -3 -3 -36 -32 -75 -65 -192 -165 -448 -424 -607 -615
-102 -121 -364 -465 -444 -580 -44 -63 -127 -188 -184 -278 -264 -411 -438
-664 -490 -712 -3 -3 -39 -45 -80 -95 -41 -49 -82 -97 -90 -105 -8 -9 -26 -30
-40 -46 -66 -77 -211 -243 -240 -274 -8 -9 -53 -59 -100 -111 -87 -96 -141
-156 -195 -213 -16 -18 -77 -83 -135 -146 -58 -62 -123 -132 -145 -155 -22
-23 -98 -104 -170 -180 -71 -76 -148 -157 -170 -180 -99 -103 -317 -334 -355
-375 -23 -25 -94 -101 -159 -169 -146 -157 -129 -138 -246 -267 -55 -60 -119
-129 -142 -154 -23 -25 -50 -54 -58 -65 -27 -33 -5 5 65 110 120 180 177 278
293 502 63 121 150 276 194 344 44 68 117 183 161 254 97 155 146 225 487 699
53 73 371 501 392 526 6 8 83 105 169 215 86 110 160 202 163 205 4 3 22 25
41 50 19 25 37 47 40 50 3 3 57 66 120 140 63 74 128 151 146 170 17 19 75 85
129 145 127 141 582 596 705 705 52 45 111 97 130 114 136 121 381 314 435
341 17 9 42 24 57 33 33 21 135 82 167 99 13 7 49 29 80 47 74 45 134 80 201
117 30 16 73 41 95 54 49 30 59 31 25 4z m-6864 -336 c6 -29 11 -75 9 -103 -4
-53 -33 -127 -45 -113 -13 15 -27 88 -25 133 1 25 3 77 5 115 2 39 5 74 8 80
7 12 31 -45 48 -112z m-90 -52 c-1 -55 -5 -97 -9 -94 -12 7 -5 193 8 193 1 0
2 -45 1 -99z m1634 -222 c-7 -16 -16 -29 -20 -29 -13 0 -85 -73 -127 -130 -37
-49 -74 -118 -125 -230 l-16 -35 4 50 c15 187 41 239 164 330 45 33 92 68 104
77 26 20 32 7 16 -33z m-563 -53 c-3 -51 -10 -104 -17 -117 -21 -40 -48 -70
-54 -61 -6 11 -1 87 9 127 9 35 56 145 62 145 2 0 2 -42 0 -94z m701 57 c-25
-92 -116 -232 -202 -311 -55 -49 -186 -146 -186 -136 0 7 62 132 89 179 55 95
89 132 216 232 50 40 91 72 92 72 1 1 -3 -16 -9 -36z m-806 -90 c-4 -27 -7
-64 -6 -82 2 -23 -1 -30 -8 -23 -14 14 -13 95 2 131 18 44 23 32 12 -26z
m-1507 -880 c3 -21 8 -50 11 -63 3 -14 7 -68 9 -120 9 -208 -56 -385 -204
-559 -27 -31 -47 -48 -51 -41 -9 15 -14 84 -14 215 -1 96 3 120 28 190 33 91
95 237 156 370 46 97 51 98 65 8z m-711 -128 c17 -14 54 -43 81 -64 71 -55 86
-70 132 -127 68 -88 132 -237 173 -409 24 -97 24 -96 3 -89 -114 37 -207 125
-284 270 -24 45 -144 315 -197 443 -9 23 56 5 92 -24z m941 -89 c-3 -119 -9
-152 -47 -251 -45 -120 -72 -166 -129 -229 -58 -64 -110 -97 -192 -124 -62
-21 -64 -15 -15 38 117 126 207 295 225 423 8 66 27 101 90 171 32 35 61 65
64 65 3 1 5 -41 4 -93z m-1219 -76 c15 -6 46 -28 69 -49 22 -21 68 -52 101
-70 78 -41 101 -65 188 -187 91 -129 112 -154 167 -194 24 -18 35 -30 24 -26
-11 3 -54 14 -96 25 -42 11 -109 36 -149 56 -105 53 -164 117 -240 260 -35 66
-79 136 -98 157 -31 34 -32 38 -14 38 11 0 33 -5 48 -10z m1137 -709 c-4 -48
-18 -81 -35 -81 -14 0 -5 124 13 165 l12 30 7 -35 c3 -19 5 -55 3 -79z m32
-70 c-19 -38 -28 -40 -14 -3 11 27 14 39 20 97 2 21 4 17 6 -17 3 -30 -2 -58
-12 -77z m-810 -191 c24 -48 53 -151 49 -177 -1 -7 -2 -23 -3 -35 -1 -21 -3
-20 -22 11 -11 18 -26 58 -34 90 -15 60 -27 161 -20 161 3 0 16 -22 30 -50z
m-22 -192 c37 -75 33 -86 -11 -33 -37 45 -48 83 -50 165 l-1 65 15 -65 c7 -36
29 -95 47 -132z m2163 -30 c11 -109 -18 -254 -76 -373 -50 -104 -77 -183 -89
-263 l-7 -47 -17 50 c-33 100 -27 194 24 346 17 52 37 108 45 124 37 83 71
206 74 270 l1 30 19 -36 c11 -20 22 -65 26 -101z m319 -84 c6 -99 -5 -198 -31
-277 -15 -46 -53 -89 -129 -149 l-30 -23 30 50 c79 136 106 215 121 360 4 33
8 69 9 80 1 11 3 38 4 60 4 70 20 5 26 -101z m-80 49 c-22 -190 -95 -379 -200
-511 -41 -53 -55 -67 -128 -132 l-28 -25 6 50 c16 124 49 203 168 400 84 138
175 275 184 275 2 0 1 -26 -2 -57z m288 -391 c-52 -71 -68 -88 -128 -137 -70
-56 -177 -109 -267 -130 -119 -28 -117 -22 34 93 156 118 210 153 296 188 86
35 98 32 65 -14z m-393 -956 c0 -14 -23 -51 -55 -91 -31 -37 -67 -87 -81 -111
-14 -24 -27 -44 -29 -44 -17 0 53 127 93 170 9 10 28 37 42 59 14 22 26 41 28
41 1 0 2 -11 2 -24z m1 -98 c-19 -48 -42 -85 -76 -126 -40 -46 -63 -56 -44
-19 13 24 119 167 125 167 2 0 0 -10 -5 -22z"/>
<path d="M11548 19945 c-2 -2 -35 -5 -73 -6 -192 -6 -342 -87 -404 -219 -22
-47 -25 -69 -25 -145 0 -102 18 -148 78 -208 70 -70 128 -94 451 -182 204 -55
272 -113 272 -230 0 -168 -179 -256 -454 -222 -96 13 -282 94 -307 136 -13 21
-26 11 -52 -41 l-27 -52 38 -33 c50 -43 149 -89 243 -115 103 -27 307 -29 401
-4 185 50 288 158 299 315 6 92 -16 165 -67 223 -67 75 -146 109 -445 188
-202 53 -279 107 -292 206 -12 99 41 184 146 233 50 23 67 25 185 26 143 0
219 -17 322 -74 l52 -28 20 48 c12 26 21 54 21 62 0 29 -191 100 -301 112 -29
4 -59 8 -66 10 -6 2 -13 2 -15 0z"/>
<path d="M17710 19942 c-385 -30 -654 -332 -633 -711 17 -319 257 -576 576
-619 305 -40 580 84 719 325 15 26 39 84 54 128 23 68 27 98 27 200 1 84 -4
139 -16 185 -49 184 -182 344 -353 425 -61 29 -188 62 -249 64 -22 1 -51 3
-65 4 -14 1 -41 1 -60 -1z m220 -148 c377 -108 512 -589 250 -887 -65 -74
-183 -143 -277 -162 -307 -63 -596 102 -668 381 -59 231 26 470 210 592 140
92 326 122 485 76z"/>
<path d="M13510 19930 c-5 -3 -43 -82 -85 -175 -43 -94 -99 -217 -126 -274
-27 -57 -49 -105 -49 -107 0 -4 -94 -211 -156 -343 -24 -51 -44 -95 -44 -96 0
-2 -31 -71 -70 -154 -38 -83 -70 -155 -70 -159 0 -8 137 -9 143 -1 3 2 39 81
81 174 l76 170 365 0 364 0 25 -55 c13 -30 48 -107 76 -170 29 -63 54 -117 57
-120 9 -10 143 -5 143 5 0 6 -11 33 -24 61 -13 27 -47 101 -76 164 -29 63 -69
151 -89 195 -21 44 -120 261 -221 482 l-183 401 -64 4 c-36 2 -69 1 -73 -2z
m105 -240 c21 -47 53 -118 71 -158 19 -41 34 -75 34 -77 0 -2 13 -32 29 -67
16 -35 54 -118 84 -185 l55 -123 -314 0 c-297 0 -314 1 -306 18 11 20 36 76
90 197 51 116 78 176 112 250 15 33 44 99 65 147 22 48 40 86 41 85 1 -1 18
-40 39 -87z"/>
<path d="M15328 19932 c-21 -2 -38 -9 -38 -15 -1 -18 -1 -1215 -1 -1262 l1
-40 435 0 c282 0 436 4 437 10 0 6 2 33 2 61 l1 51 -363 1 c-200 0 -366 2
-368 5 -3 3 -5 270 -5 595 l-1 590 -31 3 c-18 2 -49 3 -69 1z"/>
<path d="M19595 19930 c-2 -3 -3 -298 -3 -657 -1 -493 2 -652 11 -655 7 -3 39
-4 72 -4 l60 1 1 515 c1 283 2 521 3 528 0 8 36 -31 79 -85 107 -137 283 -359
539 -683 l218 -274 58 -1 c33 -1 57 3 58 9 1 15 1 1255 0 1286 -1 26 -5 27
-128 21 -8 -1 -11 -134 -11 -522 0 -286 -2 -522 -4 -524 -2 -2 -67 75 -143
172 -77 96 -147 184 -155 193 -8 10 -44 55 -80 101 -36 46 -148 187 -249 313
-100 127 -188 238 -195 247 -8 12 -30 18 -70 20 -32 2 -59 2 -61 -1z"/>
<path d="M1722 16263 l3 -1338 650 0 c717 1 803 4 954 35 424 86 641 338 624
722 -13 303 -171 508 -464 602 l-67 22 67 34 c102 53 208 164 259 270 49 104
65 176 64 300 0 190 -52 322 -171 440 -91 90 -160 132 -289 176 -193 66 -196
66 -950 71 l-682 4 2 -1338z m1298 1086 c364 -52 538 -243 498 -546 -27 -200
-184 -340 -426 -382 -138 -24 -101 -23 -714 -22 l-368 1 0 480 0 481 473 -2
c259 0 501 -5 537 -10z m116 -1200 c316 -40 492 -176 522 -403 23 -175 -28
-338 -132 -428 -72 -63 -192 -111 -334 -134 -79 -13 -192 -17 -622 -18 -289
-1 -533 0 -542 2 -17 4 -18 36 -18 498 l0 494 528 -1 c290 0 559 -5 598 -10z"/>
<path d="M5350 16266 c0 -1058 3 -1335 13 -1338 6 -2 433 -4 947 -4 l935 1 1
128 0 127 -803 0 -803 0 0 490 0 490 690 0 690 0 0 125 0 125 -690 0 -690 0 0
470 0 470 775 0 776 0 -3 123 -3 122 -917 3 -918 2 0 -1334z"/>
<path d="M9453 17588 c-6 -7 -43 -85 -83 -173 -93 -205 -77 -169 -420 -920
-161 -352 -306 -669 -322 -705 -87 -190 -189 -413 -218 -475 -114 -248 -170
-377 -166 -383 2 -4 69 -7 147 -7 l144 0 160 357 160 358 740 -3 740 -2 156
-347 c85 -191 159 -351 163 -355 7 -7 284 -13 297 -7 4 2 -60 149 -141 326
-181 397 -875 1915 -922 2018 -19 41 -61 132 -93 203 l-58 127 -137 0 c-98 0
-140 -4 -147 -12z m262 -568 c65 -146 131 -294 147 -330 17 -36 72 -159 123
-275 52 -115 127 -284 168 -375 l74 -165 -313 -3 c-172 -1 -456 -1 -632 0
l-320 3 69 155 c38 85 73 164 78 175 31 66 433 968 461 1033 13 29 24 51 25
50 1 -2 55 -122 120 -268z"/>
<path d="M12071 16782 c1 -450 5 -855 10 -902 61 -562 349 -878 879 -965 132
-22 409 -10 551 24 315 74 552 278 667 576 87 225 90 266 91 1248 l1 837 -140
0 -140 0 -1 -802 c0 -442 -2 -810 -3 -818 -2 -8 -6 -50 -10 -93 -27 -307 -183
-554 -412 -652 -123 -53 -308 -81 -463 -71 -450 29 -698 295 -735 786 -3 41
-6 429 -6 863 l0 788 -145 -2 -145 -1 1 -816z"/>
<path d="M15400 17475 l0 -125 470 0 470 0 2 -1212 3 -1213 140 0 140 0 3
1213 2 1212 465 0 465 0 0 125 0 125 -1080 0 -1080 0 0 -125z"/>
<path d="M18320 17595 c0 -7 266 -445 831 -1365 l224 -365 5 -470 5 -470 140
0 140 0 3 462 2 463 530 866 c292 477 530 871 530 876 0 5 -64 7 -142 6 l-142
-3 -71 -115 c-39 -63 -244 -398 -454 -743 -211 -346 -387 -625 -391 -620 -4 4
-59 94 -122 198 -63 105 -158 260 -210 345 -52 85 -195 319 -318 520 -122 201
-231 377 -242 393 l-19 27 -150 0 c-82 0 -149 -2 -149 -5z"/>
<path d="M12275 13225 c-13 -27 -239 -522 -503 -1100 -264 -577 -489 -1070
-500 -1095 -11 -25 -77 -168 -146 -319 -69 -151 -126 -280 -126 -286 0 -8 45
-11 153 -10 83 1 155 3 158 4 3 0 82 172 175 381 l169 379 791 1 791 0 172
-383 172 -383 154 0 c84 1 156 4 160 7 6 7 -15 57 -193 444 -60 132 -302 661
-537 1175 -235 514 -444 971 -464 1015 -21 44 -51 109 -66 145 -16 36 -31 67
-33 70 -2 3 -71 5 -154 5 l-151 1 -22 -51z m235 -420 c29 -66 65 -148 81 -181
144 -317 529 -1187 526 -1190 -2 -2 -306 -3 -675 -2 l-670 3 174 390 c96 215
181 404 188 420 8 17 42 93 76 170 34 77 74 167 89 200 15 33 54 120 86 192
33 73 62 129 66 125 4 -4 30 -61 59 -127z"/>
<path d="M15184 13266 c-2 -6 -3 -650 -2 -1431 l3 -1420 153 -1 152 0 0 453 0
453 433 0 c237 0 461 3 497 6 60 5 66 4 79 -18 13 -20 254 -361 534 -754 l100
-140 163 0 c89 1 164 3 167 6 2 3 -151 221 -339 485 -189 264 -344 483 -344
487 0 3 17 12 38 19 20 6 71 29 112 49 320 160 489 446 490 826 0 458 -225
772 -656 913 -209 69 -273 74 -968 76 -419 1 -609 -2 -612 -9z m1309 -280
c196 -35 326 -96 438 -206 121 -119 179 -274 179 -485 0 -140 -19 -229 -71
-333 -92 -188 -272 -307 -539 -357 -81 -15 -161 -18 -553 -19 l-457 -1 0 706
c0 388 2 708 4 710 3 2 206 4 453 3 376 -1 464 -4 546 -18z"/>
<path d="M18454 13265 c-3 -6 -3 -67 -2 -136 l3 -124 480 -1 c264 -1 489 -2
500 -3 20 -1 20 -8 19 -1283 0 -706 1 -1288 3 -1294 3 -8 50 -11 151 -10 l147
1 5 1295 5 1295 500 0 500 0 1 133 c0 72 -2 133 -5 133 -3 1 -523 2 -1155 3
-819 1 -1150 -1 -1152 -9z"/>
</g>
</svg>
