<?xml version="1.0" standalone="no"?>
<!DOCTYPE svg PUBLIC "-//W3C//DTD SVG 20010904//EN"
 "http://www.w3.org/TR/2001/REC-SVG-20010904/DTD/svg10.dtd">
<svg version="1.0" xmlns="http://www.w3.org/2000/svg"
 width="900.000000pt" height="900.000000pt" viewBox="0 0 900.000000 900.000000"
 preserveAspectRatio="xMidYMid meet">
<metadata>
Created by potrace 1.14, written by Peter Selinger 2001-2017
</metadata>
<g transform="translate(0.000000,900.000000) scale(0.100000,-0.100000)"
fill="#000000" stroke="none">
<path d="M4640 8804 c-169 -21 -347 -88 -476 -180 -64 -45 -151 -134 -181
-185 l-17 -29 -96 6 c-52 3 -101 7 -107 9 -25 8 -245 -16 -317 -35 -168 -43
-303 -116 -419 -229 -126 -121 -177 -237 -177 -398 1 -91 10 -137 44 -214 5
-12 -10 -20 -76 -39 -276 -80 -488 -253 -548 -449 -34 -109 -20 -231 39 -336
l28 -50 -86 -50 c-108 -63 -227 -178 -265 -256 -74 -153 -30 -289 126 -395
l75 -52 -71 -40 c-220 -125 -413 -323 -497 -508 -180 -397 64 -788 586 -939
146 -42 250 -57 441 -62 200 -6 306 3 515 43 l137 27 293 -220 c469 -351 642
-494 665 -549 16 -38 40 -311 55 -624 6 -129 13 -622 15 -1095 4 -1016 -7
-1341 -50 -1422 -7 -14 -44 -48 -82 -77 -81 -60 -111 -110 -120 -204 l-7 -62
354 2 c195 1 405 4 467 6 l112 3 0 37 c-1 79 -59 183 -175 312 -108 120 -113
129 -125 255 -20 217 -29 694 -27 1511 l2 832 57 83 c31 46 110 149 175 228
241 295 787 907 806 904 7 0 66 -15 132 -31 171 -44 289 -56 479 -49 238 9
386 43 581 136 173 82 306 197 405 348 161 244 173 554 34 836 -97 198 -297
407 -498 522 l-48 28 98 51 c129 66 238 169 286 272 30 64 33 77 33 169 0 93
-2 105 -33 167 -100 205 -370 356 -680 383 -45 4 -82 8 -82 9 0 0 9 29 20 64
23 72 28 202 10 276 -16 74 -77 182 -139 249 -130 140 -345 239 -550 254 l-86
6 -1 101 c-1 117 -24 192 -88 289 -46 69 -153 170 -229 215 -86 52 -206 100
-303 123 -87 20 -329 33 -414 23z m-715 -4165 c95 -37 268 -82 381 -99 l80
-12 -4 -31 c-24 -199 -69 -394 -97 -417 -23 -19 -64 -4 -191 72 -124 74 -516
329 -547 356 -16 15 -10 19 90 68 59 29 126 64 148 78 22 14 45 24 50 21 6 -2
46 -18 90 -36z m1392 -72 c43 -30 107 -69 142 -87 l63 -34 -298 -296 c-286
-283 -444 -420 -484 -420 -42 0 -64 165 -76 573 l-7 217 44 0 c112 0 410 53
499 89 36 14 31 16 117 -42z"/>
</g>
</svg>
