<?xml version="1.0" standalone="no"?>
<!DOCTYPE svg PUBLIC "-//W3C//DTD SVG 20010904//EN"
 "http://www.w3.org/TR/2001/REC-SVG-20010904/DTD/svg10.dtd">
<svg version="1.0" xmlns="http://www.w3.org/2000/svg"
 width="256.000000pt" height="256.000000pt" viewBox="0 0 256.000000 256.000000"
 preserveAspectRatio="xMidYMid meet">
<metadata>
Created by potrace 1.14, written by Peter Selinger 2001-2017
</metadata>
<g transform="translate(0.000000,256.000000) scale(0.100000,-0.100000)"
fill="#000000" stroke="none">
<path d="M1210 2061 c-19 -10 -45 -32 -56 -49 -12 -17 -86 -203 -164 -414 -79
-211 -148 -396 -155 -413 -46 -108 -188 -503 -192 -531 -14 -103 84 -190 192
-170 43 8 94 50 110 91 7 16 29 74 49 127 l38 97 250 -2 251 -2 27 -75 c52
-143 62 -165 95 -197 56 -53 146 -56 205 -7 69 59 76 129 25 249 -18 41 -115
301 -115 307 0 3 -8 23 -17 44 -9 22 -18 44 -19 49 -4 16 -83 228 -93 250 -11
25 -23 57 -26 70 -3 9 -38 103 -71 185 -7 19 -38 103 -68 185 -46 124 -62 155
-91 181 -53 47 -117 56 -175 25z m195 -940 c-4 -3 -179 -5 -227 -2 -10 1 -18
7 -18 14 0 7 25 78 55 157 31 80 58 152 61 160 3 8 34 -61 69 -155 35 -93 62
-171 60 -174z"/>
</g>
</svg>
