<svg width="197" height="42" viewBox="0 0 197 42" fill="none" xmlns="http://www.w3.org/2000/svg">
<path d="M10.8695 8.74996C12.4862 8.74996 13.9862 9.47913 15.2195 10.7625C16.1362 9.90204 17.2195 9.27496 18.3695 8.96871V5.83329C18.3695 5.05974 18.7207 4.31788 19.3458 3.7709C19.9709 3.22392 20.8188 2.91663 21.7028 2.91663H25.0362V5.83329H21.7028V8.96871C22.8528 9.27496 23.9362 9.90204 24.8528 10.7625C26.0862 9.47913 27.5862 8.74996 29.2028 8.74996C33.3695 8.74996 36.7028 13.65 36.7028 19.6875C36.7028 25.725 33.3695 30.625 29.2028 30.625C27.5862 30.625 26.0862 29.8958 24.8528 28.6125C23.5028 29.8958 21.8362 30.625 20.0362 30.625C18.2362 30.625 16.5695 29.8958 15.2195 28.6125C13.9862 29.8958 12.4862 30.625 10.8695 30.625C6.70284 30.625 3.36951 25.725 3.36951 19.6875C3.36951 13.65 6.70284 8.74996 10.8695 8.74996ZM15.0362 14.5833L12.9528 17.8645H17.1195L15.0362 14.5833ZM25.0362 14.5833L22.9528 17.8645H27.1195L25.0362 14.5833ZM13.3695 24.7916H16.7028L18.3695 23.3333L20.0362 24.7916H23.3695L25.0362 23.3333L26.7028 24.7916L29.2028 20.4166L23.2362 21.3208L21.7028 23.3333L20.0362 21.875H16.7028L15.0362 23.3333L13.3695 21.875L10.0362 20.4166L13.3695 24.7916Z" fill="#F5F5F5"/>
<path d="M39.4913 11.5195C39.9014 11.5664 40.2471 11.6016 40.5284 11.625C40.8096 11.6367 41.0323 11.6484 41.1964 11.6602C41.3956 11.6719 41.5538 11.6777 41.671 11.6777C41.8702 11.6777 42.0987 11.6719 42.3565 11.6602C42.5792 11.6484 42.837 11.6309 43.1299 11.6074C43.4346 11.5723 43.7628 11.5195 44.1143 11.4492C43.9503 11.625 43.8155 11.7949 43.71 11.959C43.6046 12.1113 43.5225 12.252 43.4639 12.3809C43.3936 12.5215 43.335 12.6504 43.2881 12.7676C43.2413 12.9199 43.1885 13.1543 43.1299 13.4707C43.0714 13.7402 43.0069 14.1211 42.9366 14.6133C42.878 15.1055 42.8018 15.75 42.7081 16.5469C43.1065 16.5586 43.4522 16.5645 43.7452 16.5645C44.0381 16.5527 44.2842 16.5469 44.4835 16.5469H45.0635C45.2276 16.5352 45.4151 16.5234 45.626 16.5117C45.9776 16.5 46.5108 16.4648 47.2256 16.4062C47.2842 15.8672 47.3135 15.4043 47.3135 15.0176C47.3253 14.6191 47.3194 14.2852 47.296 14.0156C47.2725 13.7109 47.2374 13.4531 47.1905 13.2422C47.1553 13.125 47.1026 12.9844 47.0323 12.8203C46.9737 12.6797 46.8917 12.5098 46.7862 12.3105C46.6924 12.0996 46.5635 11.8477 46.3995 11.5547C46.7042 11.6016 46.9737 11.6367 47.2081 11.6602C47.4542 11.6719 47.6592 11.6836 47.8233 11.6953C48.0108 11.707 48.169 11.7129 48.2979 11.7129C48.4268 11.7129 48.5967 11.707 48.8077 11.6953C48.9835 11.6836 49.2003 11.6777 49.4581 11.6777C49.7159 11.666 50.0323 11.6484 50.4073 11.625C50.3135 11.7891 50.2315 11.959 50.1612 12.1348C50.0909 12.3105 50.0323 12.4688 49.9854 12.6094C49.9385 12.7734 49.8917 12.9375 49.8448 13.1016C49.7862 13.3477 49.7335 13.7051 49.6866 14.1738C49.6514 14.6426 49.6163 15.1641 49.5811 15.7383C49.5577 16.3125 49.5342 16.9102 49.5108 17.5312C49.4991 18.1523 49.4874 18.7383 49.4756 19.2891C49.4756 19.8398 49.4815 20.332 49.4932 20.7656C49.5049 21.1875 49.5284 21.4863 49.5635 21.6621C49.5987 21.873 49.6573 22.0898 49.7393 22.3125C49.8096 22.5117 49.9034 22.7285 50.0206 22.9629C50.1378 23.1855 50.2901 23.3965 50.4776 23.5957L46.2413 23.9121C46.4171 23.748 46.5577 23.5898 46.6631 23.4375C46.7686 23.2734 46.8506 23.1328 46.9092 23.0156C46.9678 22.8867 47.0089 22.7637 47.0323 22.6465C47.044 22.5059 47.0616 22.2598 47.085 21.9082C47.1085 21.6152 47.1319 21.1992 47.1553 20.6602C47.1788 20.1211 47.2022 19.4062 47.2256 18.5156C47.0616 18.5156 46.8624 18.5215 46.628 18.5332C46.4053 18.5332 46.1944 18.5391 45.9952 18.5508C45.7608 18.5625 45.5147 18.5684 45.2569 18.5684C44.9991 18.5801 44.7296 18.5918 44.4483 18.6035C44.2139 18.627 43.9503 18.6504 43.6573 18.6738C43.376 18.6855 43.0948 18.7031 42.8135 18.7266C42.7901 19.2188 42.7901 19.6523 42.8135 20.0273C42.837 20.3906 42.8721 20.7012 42.919 20.959C42.9659 21.2637 43.0245 21.5273 43.0948 21.75C43.1651 21.9609 43.2413 22.1719 43.3233 22.3828C43.3936 22.5703 43.4756 22.7695 43.5694 22.9805C43.6749 23.1914 43.7803 23.3789 43.8858 23.543C43.6631 23.5195 43.4581 23.502 43.2706 23.4902C43.0831 23.4668 42.919 23.4434 42.7784 23.4199C42.6143 23.4082 42.4561 23.3965 42.3038 23.3848C42.1514 23.3848 41.9698 23.3789 41.7589 23.3672C41.5714 23.3555 41.337 23.3496 41.0557 23.3496C40.7745 23.3379 40.4464 23.332 40.0714 23.332C40.294 23.1094 40.4698 22.8926 40.5987 22.6816C40.7393 22.459 40.8389 22.2598 40.8975 22.084C40.9678 21.873 41.0147 21.6797 41.0381 21.5039C41.0499 21.3516 41.0557 21.0645 41.0557 20.6426C41.0674 20.2207 41.0674 19.7402 41.0557 19.2012C41.0557 18.6504 41.0499 18.0762 41.0381 17.4785C41.0264 16.8691 41.0089 16.3008 40.9854 15.7734C40.9737 15.2461 40.9561 14.7949 40.9327 14.4199C40.921 14.0332 40.9092 13.793 40.8975 13.6992C40.8389 13.4883 40.751 13.2598 40.6339 13.0137C40.5284 12.8145 40.3878 12.5859 40.212 12.3281C40.0362 12.0586 39.796 11.7891 39.4913 11.5195ZM52.2354 16.8809C52.294 16.8105 52.3292 16.6816 52.3409 16.4941C52.3643 16.2949 52.4112 16.0723 52.4815 15.8262C52.5635 15.5801 52.6983 15.3223 52.8858 15.0527C53.0733 14.7832 53.378 14.5312 53.7999 14.2969C54.21 14.0625 54.6085 13.9219 54.9952 13.875C55.3819 13.8281 55.751 13.8457 56.1026 13.9277C56.4542 14.0098 56.7823 14.1387 57.087 14.3145C57.4034 14.4902 57.6905 14.6836 57.9483 14.8945C58.1241 15.0352 58.2647 15.2402 58.3702 15.5098C58.4756 15.7676 58.5577 16.0605 58.6163 16.3887C58.6749 16.7168 58.7159 17.0625 58.7393 17.4258C58.7745 17.7773 58.7979 18.123 58.8096 18.4629C58.8214 18.791 58.8272 19.0957 58.8272 19.377C58.8389 19.6465 58.8624 19.8691 58.8975 20.0449C58.9444 20.3027 59.0264 20.5254 59.1436 20.7129C59.2608 20.8887 59.3897 21.041 59.5303 21.1699C59.671 21.2871 59.8116 21.3809 59.9522 21.4512C60.0928 21.5215 60.2159 21.5742 60.3214 21.6094C60.3917 21.6445 60.4561 21.668 60.5147 21.6797C60.6319 21.7266 60.7139 21.7266 60.7608 21.6797C60.6905 21.8438 60.626 21.9844 60.5674 22.1016C60.5089 22.2188 60.462 22.3184 60.4268 22.4004C60.3799 22.4941 60.3389 22.5703 60.3038 22.6289C60.2686 22.6992 60.2276 22.7637 60.1807 22.8223C60.1456 22.8809 60.0987 22.9453 60.0401 23.0156C59.9815 23.0859 59.9229 23.1621 59.8643 23.2441C59.712 23.1855 59.5655 23.1152 59.4249 23.0332C59.296 22.9512 59.1788 22.875 59.0733 22.8047C58.9444 22.7227 58.8272 22.6406 58.7217 22.5586C58.6163 22.4766 58.5167 22.3828 58.4229 22.2773C58.3409 22.1836 58.253 22.084 58.1592 21.9785C58.0772 21.873 58.0069 21.7559 57.9483 21.627C57.878 21.7793 57.7081 21.9961 57.4385 22.2773C57.1807 22.5586 56.8409 22.8164 56.419 23.0508C55.9971 23.2734 55.5049 23.4316 54.9424 23.5254C54.3917 23.6191 53.7823 23.5547 53.1143 23.332C52.8214 23.2383 52.546 23.1035 52.2881 22.9277C52.0303 22.7402 51.8077 22.5176 51.6202 22.2598C51.4444 22.002 51.3155 21.709 51.2335 21.3809C51.1631 21.041 51.169 20.666 51.251 20.2559C51.3331 19.8457 51.4796 19.5 51.6905 19.2188C51.9014 18.9375 52.1534 18.709 52.4464 18.5332C52.7393 18.3574 53.0674 18.2227 53.4307 18.1289C53.794 18.0352 54.169 17.9707 54.5557 17.9355C54.8604 17.9238 55.1651 17.9414 55.4698 17.9883C55.7276 18.0352 55.9971 18.123 56.2784 18.252C56.5596 18.3691 56.7999 18.5508 56.9991 18.7969C56.9874 18.1758 56.9639 17.6836 56.9288 17.3203C56.9053 16.9453 56.8819 16.6582 56.8585 16.459C56.8116 16.2246 56.7706 16.0605 56.7354 15.9668C56.6768 15.8848 56.6124 15.791 56.5421 15.6855C56.4835 15.5801 56.4073 15.4863 56.3135 15.4043C56.2198 15.3105 56.1026 15.2344 55.962 15.1758C55.8214 15.1172 55.6573 15.0938 55.4698 15.1055C55.2706 15.1172 55.1124 15.1699 54.9952 15.2637C54.878 15.3574 54.7842 15.4688 54.7139 15.5977C54.6553 15.7148 54.6202 15.8438 54.6085 15.9844C54.5967 16.125 54.6026 16.248 54.626 16.3535C54.6495 16.4238 54.6846 16.5 54.7315 16.582C54.7784 16.6523 54.8428 16.7285 54.9249 16.8105C55.0069 16.8926 55.1182 16.9629 55.2589 17.0215C54.9893 17.0566 54.7491 17.0859 54.5381 17.1094C54.3272 17.1211 54.1456 17.1387 53.9932 17.1621C53.8174 17.1855 53.6651 17.2031 53.5362 17.2148C53.4073 17.2266 53.2549 17.25 53.0792 17.2852C52.9268 17.3086 52.7393 17.3379 52.5167 17.373C52.294 17.4082 52.0362 17.4551 51.7432 17.5137C51.8135 17.4316 51.878 17.3555 51.9366 17.2852C51.9952 17.2031 52.0479 17.1328 52.0948 17.0742C52.1417 17.0039 52.1885 16.9395 52.2354 16.8809ZM54.8721 18.9727C54.6612 18.9844 54.4503 19.0371 54.2393 19.1309C54.0284 19.2129 53.8409 19.3359 53.6768 19.5C53.5128 19.6523 53.3721 19.834 53.2549 20.0449C53.1495 20.2441 53.0967 20.4668 53.0967 20.7129C53.0967 20.959 53.1553 21.1758 53.2725 21.3633C53.4014 21.5391 53.5655 21.6855 53.7647 21.8027C53.9756 21.9199 54.1983 21.9902 54.4327 22.0137C54.6788 22.0371 54.919 22.0137 55.1534 21.9434C55.376 21.8613 55.587 21.7324 55.7862 21.5566C55.9854 21.3691 56.1553 21.1699 56.296 20.959C56.4366 20.7363 56.5362 20.5195 56.5948 20.3086C56.6534 20.0859 56.6592 19.9043 56.6124 19.7637C56.5186 19.459 56.3077 19.248 55.9796 19.1309C55.6514 19.002 55.2823 18.9492 54.8721 18.9727ZM60.9893 24.4922C61.1065 24.3164 61.2003 24.1523 61.2706 24C61.3409 23.8477 61.3995 23.7188 61.4464 23.6133C61.4932 23.4844 61.5284 23.3672 61.5518 23.2617C61.5635 23.1914 61.5694 22.9863 61.5694 22.6465C61.5694 22.3066 61.5577 21.8789 61.5342 21.3633C61.5225 20.8477 61.5049 20.2676 61.4815 19.623C61.4698 18.9785 61.4464 18.3223 61.4112 17.6543C61.3878 16.9863 61.3585 16.3359 61.3233 15.7031C61.2999 15.0703 61.2764 14.502 61.253 13.998C61.2296 13.4824 61.2061 13.0605 61.1827 12.7324C61.1592 12.4043 61.1417 12.2168 61.1299 12.1699C61.1065 12.0996 61.0655 12.0293 61.0069 11.959C60.8897 11.8184 60.6905 11.6836 60.4092 11.5547C61.0069 11.4023 61.4639 11.2793 61.7803 11.1855C61.9678 11.1387 62.1319 11.0918 62.2725 11.0449C62.4014 10.998 62.5303 10.9512 62.6592 10.9043C62.7647 10.8574 62.8819 10.8047 63.0108 10.7461C63.1397 10.6758 63.2569 10.5996 63.3624 10.5176C63.3038 10.8574 63.2569 11.1855 63.2217 11.502C63.1866 11.8184 63.1573 12.1113 63.1339 12.3809C63.1104 12.6855 63.0987 12.9785 63.0987 13.2598C63.0401 13.834 63.0049 14.4609 62.9932 15.1406C62.9932 15.8086 62.9991 16.4883 63.0108 17.1797C63.0225 17.8711 63.046 18.5449 63.0811 19.2012C63.1163 19.8574 63.1514 20.4551 63.1866 20.9941C63.2335 21.5215 63.2745 21.9727 63.3096 22.3477C63.3565 22.7109 63.3917 22.9453 63.4151 23.0508C63.462 23.2266 63.5089 23.3965 63.5557 23.5605C63.6026 23.7012 63.6553 23.8477 63.7139 24C63.7725 24.1641 63.8428 24.293 63.9249 24.3867H62.2198C62.0674 24.3867 61.921 24.3926 61.7803 24.4043C61.6514 24.416 61.5167 24.4277 61.376 24.4395C61.2354 24.4512 61.1065 24.4688 60.9893 24.4922ZM64.962 24.4922C65.0792 24.3164 65.1729 24.1523 65.2432 24C65.3135 23.8477 65.3721 23.7188 65.419 23.6133C65.4659 23.4844 65.501 23.3672 65.5245 23.2617C65.5362 23.1914 65.5421 22.9863 65.5421 22.6465C65.5421 22.3066 65.5303 21.8789 65.5069 21.3633C65.4952 20.8477 65.4776 20.2676 65.4542 19.623C65.4424 18.9785 65.419 18.3223 65.3839 17.6543C65.3604 16.9863 65.3311 16.3359 65.296 15.7031C65.2725 15.0703 65.2491 14.502 65.2256 13.998C65.2022 13.4824 65.1788 13.0605 65.1553 12.7324C65.1319 12.4043 65.1143 12.2168 65.1026 12.1699C65.0792 12.0996 65.0381 12.0293 64.9796 11.959C64.8624 11.8184 64.6631 11.6836 64.3819 11.5547C64.9796 11.4023 65.4366 11.2793 65.753 11.1855C65.9405 11.1387 66.1046 11.0918 66.2452 11.0449C66.3741 10.998 66.503 10.9512 66.6319 10.9043C66.7374 10.8574 66.8546 10.8047 66.9835 10.7461C67.1124 10.6758 67.2296 10.5996 67.335 10.5176C67.2764 10.8574 67.2296 11.1855 67.1944 11.502C67.1592 11.8184 67.1299 12.1113 67.1065 12.3809C67.0831 12.6855 67.0714 12.9785 67.0714 13.2598C67.0128 13.834 66.9776 14.4609 66.9659 15.1406C66.9659 15.8086 66.9717 16.4883 66.9835 17.1797C66.9952 17.8711 67.0186 18.5449 67.0538 19.2012C67.0889 19.8574 67.1241 20.4551 67.1592 20.9941C67.2061 21.5215 67.2471 21.9727 67.2823 22.3477C67.3292 22.7109 67.3643 22.9453 67.3878 23.0508C67.4346 23.2266 67.4815 23.3965 67.5284 23.5605C67.5753 23.7012 67.628 23.8477 67.6866 24C67.7452 24.1641 67.8155 24.293 67.8975 24.3867H66.1924C66.0401 24.3867 65.8936 24.3926 65.753 24.4043C65.6241 24.416 65.4893 24.4277 65.3487 24.4395C65.2081 24.4512 65.0792 24.4688 64.962 24.4922ZM73.2413 16.125C73.546 16.125 73.8624 16.1836 74.1905 16.3008C74.5186 16.4062 74.835 16.5469 75.1397 16.7227C75.4444 16.8867 75.7198 17.0684 75.9659 17.2676C76.2237 17.4551 76.4346 17.6367 76.5987 17.8125C76.8917 18.1289 77.0909 18.5566 77.1964 19.0957C77.3135 19.623 77.337 20.168 77.2667 20.7305C77.1964 21.2812 77.0323 21.8027 76.7745 22.2949C76.5167 22.7871 76.1592 23.1504 75.7022 23.3848C75.3741 23.5488 75.0518 23.6777 74.7354 23.7715C74.419 23.8652 74.1143 23.9355 73.8214 23.9824C73.5284 24.0293 73.253 24.0527 72.9952 24.0527C72.7374 24.0527 72.5147 24.0469 72.3272 24.0352C71.9756 24.0117 71.6065 23.8887 71.2198 23.666C70.8448 23.4434 70.4874 23.168 70.1475 22.8398C69.8194 22.5117 69.5381 22.1543 69.3038 21.7676C69.0694 21.3691 68.9288 20.9941 68.8819 20.6426C68.8116 20.1621 68.7999 19.6582 68.8467 19.1309C68.8936 18.6035 69.0635 18.1172 69.3565 17.6719C69.6612 17.2266 70.1182 16.8574 70.7276 16.5645C71.3487 16.2715 72.1866 16.125 73.2413 16.125ZM72.6612 22.9453C72.7901 22.9688 72.9659 22.9395 73.1885 22.8574C73.4112 22.7637 73.628 22.6172 73.8389 22.418C74.0616 22.2188 74.2549 21.9668 74.419 21.6621C74.5948 21.3457 74.7003 20.9648 74.7354 20.5195C74.7706 20.0859 74.7706 19.6875 74.7354 19.3242C74.712 18.9609 74.6592 18.6445 74.5772 18.375C74.4952 18.0938 74.4014 17.8652 74.296 17.6895C74.1905 17.5137 74.0792 17.3906 73.962 17.3203C73.7628 17.2148 73.5225 17.1328 73.2413 17.0742C72.96 17.0039 72.7198 17.0156 72.5206 17.1094C72.4268 17.1562 72.3096 17.2559 72.169 17.4082C72.0284 17.5605 71.8878 17.7539 71.7471 17.9883C71.6065 18.2109 71.4776 18.4688 71.3604 18.7617C71.2549 19.0547 71.1788 19.3594 71.1319 19.6758C71.085 19.9922 71.0733 20.332 71.0967 20.6953C71.1319 21.0586 71.2081 21.4043 71.3253 21.7324C71.4424 22.0488 71.6065 22.3242 71.8174 22.5586C72.0401 22.7812 72.3214 22.9102 72.6612 22.9453ZM77.0381 15.8965C77.3897 15.9199 77.7003 15.9375 77.9698 15.9492C78.251 15.9609 78.4854 15.9727 78.6729 15.9844C78.8839 15.9961 79.0714 16.002 79.2354 16.002C79.3995 16.002 79.587 15.9961 79.7979 15.9844C79.9854 15.9727 80.2139 15.9551 80.4835 15.9316C80.7647 15.8965 81.087 15.8496 81.4503 15.791C81.169 15.9668 80.9405 16.1309 80.7647 16.2832C80.6006 16.4238 80.4717 16.5527 80.378 16.6699C80.2725 16.7988 80.2022 16.916 80.1671 17.0215C80.1436 17.1152 80.1202 17.3027 80.0967 17.584C80.085 17.8535 80.0733 18.1699 80.0616 18.5332C80.0616 18.8848 80.0674 19.2598 80.0792 19.6582C80.0909 20.0566 80.1085 20.4199 80.1319 20.748C80.1553 21.0645 80.1905 21.334 80.2374 21.5566C80.2842 21.7676 80.3428 21.8672 80.4131 21.8555C80.5069 21.7734 80.6592 21.498 80.8702 21.0293C80.9522 20.8301 81.0518 20.5781 81.169 20.2734C81.2862 19.957 81.421 19.5762 81.5733 19.1309C81.7256 18.6738 81.8956 18.1406 82.0831 17.5312C82.2823 16.9219 82.5049 16.2129 82.751 15.4043H84.2803C84.3272 16.2012 84.3799 16.8984 84.4385 17.4961C84.4971 18.0938 84.5557 18.6152 84.6143 19.0605C84.6729 19.4941 84.7256 19.8633 84.7725 20.168C84.8311 20.4609 84.8897 20.7012 84.9483 20.8887C85.0772 21.334 85.2061 21.5742 85.335 21.6094C85.4405 21.5859 85.5518 21.4512 85.669 21.2051C85.7979 20.959 85.9151 20.6543 86.0206 20.291C86.1378 19.9277 86.2432 19.5352 86.337 19.1133C86.4307 18.6797 86.5128 18.2754 86.5831 17.9004C86.6534 17.5254 86.7003 17.1973 86.7237 16.916C86.7471 16.6348 86.7471 16.459 86.7237 16.3887C86.6885 16.3184 86.6182 16.2188 86.5128 16.0898C86.419 15.9844 86.2901 15.8555 86.126 15.7031C85.9737 15.5508 85.7628 15.3691 85.4932 15.1582C85.8214 15.2168 86.1319 15.2578 86.4249 15.2812C86.7296 15.293 86.9991 15.3047 87.2335 15.3164C87.503 15.3281 87.7491 15.3281 87.9717 15.3164C88.2061 15.3164 88.4932 15.3105 88.8331 15.2988C89.126 15.2871 89.4893 15.2812 89.9229 15.2812C90.3682 15.2812 90.8897 15.2695 91.4874 15.2461C90.96 15.4102 90.5381 15.5684 90.2217 15.7207C89.9171 15.8613 89.6827 15.9961 89.5186 16.125C89.3194 16.2656 89.1788 16.4004 89.0967 16.5293C89.0147 16.7051 88.8858 17.0742 88.71 17.6367C88.6397 17.8711 88.5518 18.1641 88.4464 18.5156C88.3409 18.8555 88.2178 19.2598 88.0772 19.7285C87.9366 20.1973 87.7784 20.7422 87.6026 21.3633C87.4268 21.9727 87.2276 22.6699 87.0049 23.4551C86.876 23.4316 86.7413 23.4199 86.6006 23.4199C86.4717 23.4082 86.3487 23.4023 86.2315 23.4023H85.8272C85.6866 23.4141 85.5342 23.4258 85.3702 23.4375C85.2296 23.4492 85.0655 23.4668 84.878 23.4902C84.6905 23.5137 84.4854 23.543 84.2628 23.5781L83.2081 19.3066L81.4854 23.5781L79.5167 23.5254C79.2706 22.2012 79.0714 21.1465 78.919 20.3613C78.7784 19.5645 78.6612 18.9551 78.5674 18.5332C78.462 18.041 78.3917 17.6953 78.3565 17.4961C78.2979 17.2852 78.21 17.0801 78.0928 16.8809C77.9991 16.7168 77.8643 16.5469 77.6885 16.3711C77.5128 16.1836 77.296 16.0254 77.0381 15.8965ZM94.2471 21.1699C94.5753 21.1699 94.8799 21.1348 95.1612 21.0645C95.3956 21.0059 95.6182 20.9121 95.8292 20.7832C96.0518 20.6426 96.1983 20.4375 96.2686 20.168C96.503 20.2148 96.7022 20.2559 96.8663 20.291C97.0303 20.3145 97.171 20.3379 97.2881 20.3613C97.4171 20.3965 97.5284 20.4199 97.6221 20.4316C97.7159 20.4551 97.8272 20.4785 97.9561 20.502C98.0733 20.5254 98.2139 20.5547 98.378 20.5898C98.5538 20.6133 98.7589 20.6484 98.9932 20.6953C98.8174 20.6719 98.6358 20.6895 98.4483 20.748C98.2725 20.8066 98.1026 20.8711 97.9385 20.9414C97.751 21.0234 97.5753 21.123 97.4112 21.2402C97.3057 21.3105 97.1827 21.416 97.0421 21.5566C96.9131 21.6973 96.7256 21.832 96.4796 21.9609C96.2335 22.0898 95.9053 22.2012 95.4952 22.2949C95.0967 22.377 94.5811 22.4062 93.9483 22.3828C93.1866 22.3594 92.5479 22.2246 92.0323 21.9785C91.5167 21.7207 91.1006 21.4102 90.7842 21.0469C90.4678 20.6719 90.2393 20.2676 90.0987 19.834C89.9581 19.4004 89.8819 18.9961 89.8702 18.6211C89.8585 18.2461 89.9698 17.8535 90.2042 17.4434C90.4385 17.0332 90.7667 16.6582 91.1885 16.3184C91.6221 15.9785 92.1436 15.7031 92.753 15.4922C93.3624 15.2695 94.0303 15.1582 94.7569 15.1582C95.1788 15.1582 95.5655 15.2109 95.9171 15.3164C96.2803 15.4102 96.6085 15.5391 96.9014 15.7031C97.2061 15.8672 97.4698 16.0547 97.6924 16.2656C97.9151 16.4648 98.1026 16.6699 98.2549 16.8809C98.4073 17.1035 98.5362 17.3379 98.6417 17.584C98.7354 17.7949 98.8116 18.0352 98.8702 18.3047C98.9288 18.5742 98.9464 18.8496 98.9229 19.1309C98.0323 19.1543 97.3116 19.1719 96.7608 19.1836C96.2217 19.1953 95.7999 19.2012 95.4952 19.2012H94.7042H94.1065C93.8956 19.2012 93.6202 19.207 93.2803 19.2188C92.9405 19.2305 92.5245 19.248 92.0323 19.2715C92.0909 19.7402 92.2374 20.1035 92.4717 20.3613C92.7178 20.6074 92.9756 20.7949 93.2452 20.9238C93.5499 21.0645 93.8839 21.1465 94.2471 21.1699ZM92.6651 18.0059C93.0401 18.0293 93.3506 18.0469 93.5967 18.0586C93.8546 18.0703 94.0655 18.082 94.2296 18.0938C94.4053 18.1055 94.546 18.1113 94.6514 18.1113H95.0909C95.3839 18.1113 95.9288 18.0938 96.7256 18.0586C96.6905 17.543 96.5792 17.1504 96.3917 16.8809C96.2159 16.6113 96.0284 16.4121 95.8292 16.2832C95.5948 16.1426 95.337 16.0605 95.0557 16.0371C94.294 16.0488 93.7256 16.207 93.3506 16.5117C92.9874 16.8164 92.7589 17.3145 92.6651 18.0059ZM100.171 22.0664C100.253 21.6797 100.312 21.3398 100.347 21.0469C100.394 20.7422 100.429 20.4902 100.452 20.291C100.476 20.0566 100.487 19.8574 100.487 19.6934C100.476 19.4941 100.464 19.2598 100.452 18.9902C100.452 18.709 100.44 18.4336 100.417 18.1641C100.405 17.8828 100.388 17.6367 100.364 17.4258C100.341 17.2031 100.312 17.0449 100.276 16.9512C100.23 16.8574 100.165 16.7578 100.083 16.6523C99.919 16.4531 99.6788 16.2598 99.3624 16.0723C99.6319 16.0137 99.8604 15.9668 100.048 15.9316C100.247 15.8848 100.411 15.8438 100.54 15.8086C100.681 15.7617 100.804 15.7207 100.909 15.6855C101.003 15.6504 101.114 15.6152 101.243 15.5801C101.349 15.5566 101.478 15.5273 101.63 15.4922C101.782 15.457 101.958 15.416 102.157 15.3691L102.105 16.9688C102.48 16.5234 102.86 16.1895 103.247 15.9668C103.634 15.7441 103.997 15.5859 104.337 15.4922C104.724 15.375 105.105 15.3164 105.48 15.3164C105.948 15.3398 106.382 15.416 106.78 15.5449C107.19 15.6738 107.542 15.8262 107.835 16.002C108.14 16.166 108.386 16.3418 108.573 16.5293C108.761 16.7168 108.872 16.8809 108.907 17.0215C109.048 17.4785 109.083 17.9004 109.013 18.2871C108.942 18.6621 108.849 19.0312 108.732 19.3945C108.626 19.7461 108.532 20.0977 108.45 20.4492C108.38 20.8008 108.409 21.1816 108.538 21.5918C108.585 21.6973 108.632 21.8027 108.679 21.9082C108.726 22.002 108.784 22.0957 108.855 22.1895C108.925 22.2832 109.007 22.3594 109.101 22.418C108.972 22.4062 108.843 22.4004 108.714 22.4004C108.585 22.3887 108.468 22.377 108.362 22.3652C108.233 22.3535 108.116 22.3418 108.011 22.3301C107.894 22.3184 107.735 22.3125 107.536 22.3125C107.196 22.3125 106.669 22.3301 105.954 22.3652C106.06 22.1191 106.142 21.9141 106.2 21.75C106.271 21.5742 106.329 21.4336 106.376 21.3281C106.423 21.1992 106.458 21.0996 106.482 21.0293C106.622 20.6895 106.704 20.3027 106.728 19.8691C106.763 19.4355 106.733 18.9961 106.64 18.5508C106.605 18.3984 106.546 18.2168 106.464 18.0059C106.382 17.7949 106.271 17.5898 106.13 17.3906C106.001 17.1914 105.843 17.0215 105.655 16.8809C105.48 16.7402 105.274 16.6582 105.04 16.6348C104.806 16.6113 104.542 16.6699 104.249 16.8105C103.968 16.9512 103.663 17.209 103.335 17.584C103.089 17.9004 102.896 18.2871 102.755 18.7441C102.626 19.1309 102.538 19.6172 102.491 20.2031C102.444 20.7773 102.515 21.4512 102.702 22.2246C102.538 22.2012 102.386 22.1895 102.245 22.1895C102.105 22.1777 101.987 22.166 101.894 22.1543C101.776 22.1426 101.671 22.1309 101.577 22.1191C101.472 22.1191 101.355 22.1133 101.226 22.1016C101.108 22.1016 100.962 22.1016 100.786 22.1016C100.61 22.0898 100.405 22.0781 100.171 22.0664Z" fill="white"/>
<path d="M118.427 24.1328C118.263 24.5078 118.116 24.8359 117.987 25.1172C117.858 25.3984 117.747 25.6387 117.653 25.8379C117.548 26.0605 117.46 26.2598 117.39 26.4355C117.331 26.5645 117.255 26.7402 117.161 26.9629C117.067 27.1621 116.95 27.4258 116.81 27.7539C116.681 28.0703 116.511 28.4805 116.3 28.9844C116.194 28.5508 116.065 28.1699 115.913 27.8418C115.761 27.5137 115.597 27.2266 115.421 26.9805C115.245 26.7344 115.058 26.5352 114.858 26.3828C114.671 26.2188 114.483 26.084 114.296 25.9785C113.862 25.7441 113.405 25.6152 112.925 25.5918C112.292 25.627 111.794 25.7324 111.431 25.9082C111.079 26.0723 110.821 26.2656 110.657 26.4883C110.493 26.6992 110.405 26.9219 110.394 27.1562C110.382 27.3789 110.411 27.5664 110.482 27.7188C110.54 27.8594 110.745 28.0234 111.097 28.2109C111.46 28.3984 111.894 28.6152 112.398 28.8613C112.913 29.0957 113.464 29.3652 114.05 29.6699C114.636 29.9629 115.175 30.291 115.667 30.6543C116.171 31.0059 116.593 31.3926 116.933 31.8145C117.284 32.2246 117.478 32.6641 117.513 33.1328C117.548 33.7305 117.542 34.2695 117.495 34.75C117.448 35.2305 117.284 35.6406 117.003 35.9805C116.722 36.3203 116.282 36.5898 115.685 36.7891C115.099 36.9883 114.284 37.1113 113.241 37.1582C112.163 37.2051 111.278 37.1465 110.587 36.9824C109.896 36.8184 109.333 36.5957 108.899 36.3145C108.478 36.0332 108.161 35.7227 107.95 35.3828C107.751 35.043 107.605 34.7207 107.511 34.416C107.417 34.0996 107.353 33.8301 107.317 33.6074C107.282 33.373 107.224 33.2324 107.142 33.1855C107.048 33.127 106.954 33.0742 106.86 33.0273C106.778 32.9805 106.69 32.9395 106.597 32.9043C106.503 32.8574 106.409 32.8164 106.315 32.7812L111.431 31.9551C111.138 32.1895 110.909 32.4062 110.745 32.6055C110.593 32.8047 110.476 32.9805 110.394 33.1328C110.3 33.3086 110.235 33.4727 110.2 33.625C110.177 33.7891 110.23 33.9941 110.358 34.2402C110.487 34.4863 110.663 34.7266 110.886 34.9609C111.12 35.1836 111.39 35.3711 111.694 35.5234C111.999 35.6758 112.315 35.7402 112.644 35.7168C113.054 35.6816 113.388 35.582 113.646 35.418C113.903 35.2422 114.097 35.0254 114.226 34.7676C114.366 34.5098 114.448 34.2285 114.472 33.9238C114.495 33.6191 114.466 33.3203 114.384 33.0273C114.314 32.7227 114.196 32.4414 114.032 32.1836C113.868 31.9141 113.675 31.6914 113.452 31.5156C113.253 31.375 112.942 31.2402 112.521 31.1113C112.11 30.9824 111.648 30.8418 111.132 30.6895C110.628 30.5371 110.107 30.3613 109.567 30.1621C109.04 29.9629 108.56 29.7168 108.126 29.4238C107.704 29.1309 107.364 28.7852 107.107 28.3867C106.86 27.9883 106.767 27.5078 106.825 26.9453C106.872 26.4648 107.024 26.0664 107.282 25.75C107.552 25.4219 107.886 25.1641 108.284 24.9766C108.694 24.7773 109.146 24.6309 109.638 24.5371C110.142 24.4434 110.651 24.3906 111.167 24.3789C111.694 24.3555 112.21 24.3613 112.714 24.3965C113.23 24.4316 113.692 24.4727 114.103 24.5195C114.513 24.5664 114.858 24.6133 115.14 24.6602C115.433 24.6953 115.614 24.7188 115.685 24.7305C115.989 24.7539 116.294 24.748 116.599 24.7129C116.868 24.6895 117.161 24.6367 117.478 24.5547C117.806 24.4609 118.122 24.3203 118.427 24.1328ZM117.899 28.8086C118.274 28.75 118.579 28.7031 118.814 28.668C119.06 28.6211 119.259 28.5859 119.411 28.5625C119.587 28.5273 119.722 28.498 119.815 28.4746C119.909 28.4512 120.044 28.416 120.22 28.3691C120.372 28.3223 120.571 28.2695 120.817 28.2109C121.064 28.1406 121.374 28.0469 121.749 27.9297C121.655 28.0469 121.579 28.1523 121.521 28.2461C121.474 28.3281 121.427 28.3984 121.38 28.457C121.333 28.5273 121.292 28.5918 121.257 28.6504C121.222 28.709 121.187 28.7969 121.151 28.9141C121.128 29.0078 121.099 29.1426 121.064 29.3184C121.028 29.4824 120.999 29.6992 120.976 29.9688C121.608 29.5703 122.189 29.2715 122.716 29.0723C123.255 28.873 123.724 28.7324 124.122 28.6504C124.591 28.5566 125.013 28.5215 125.388 28.5449C125.857 28.5801 126.29 28.6855 126.689 28.8613C127.099 29.0254 127.468 29.2246 127.796 29.459C128.124 29.6934 128.411 29.9512 128.657 30.2324C128.903 30.5137 129.097 30.7949 129.237 31.0762C129.331 31.2637 129.39 31.5332 129.413 31.8848C129.448 32.2363 129.413 32.6113 129.308 33.0098C129.202 33.4082 129.015 33.8008 128.745 34.1875C128.487 34.5625 128.118 34.8613 127.638 35.084C126.806 35.459 125.98 35.6699 125.159 35.7168C124.808 35.7402 124.444 35.7285 124.069 35.6816C123.706 35.6348 123.337 35.5352 122.962 35.3828C122.599 35.2305 122.247 35.0137 121.907 34.7324C121.567 34.4395 121.257 34.0645 120.976 33.6074C120.882 34.2051 120.812 34.7266 120.765 35.1719C120.73 35.6055 120.706 35.9688 120.694 36.2617C120.683 36.6016 120.683 36.8887 120.694 37.123C120.718 37.3574 120.765 37.6094 120.835 37.8789C120.894 38.1133 120.976 38.3828 121.081 38.6875C121.198 39.0039 121.345 39.332 121.521 39.6719C121.45 39.6484 121.351 39.6309 121.222 39.6191C121.105 39.6191 120.982 39.6309 120.853 39.6543C120.712 39.6777 120.554 39.7012 120.378 39.7246C120.214 39.7598 120.032 39.8008 119.833 39.8477C119.669 39.8828 119.476 39.9238 119.253 39.9707C119.042 40.0293 118.825 40.0938 118.603 40.1641C118.732 40.0117 118.831 39.8359 118.901 39.6367C118.983 39.4492 119.048 39.2734 119.095 39.1094C119.142 38.9102 119.183 38.7109 119.218 38.5117C119.23 38.3359 119.247 38.002 119.271 37.5098C119.306 37.0293 119.335 36.4727 119.358 35.8398C119.382 35.1953 119.399 34.5215 119.411 33.8184C119.435 33.1152 119.446 32.4648 119.446 31.8672C119.458 31.2578 119.458 30.7422 119.446 30.3203C119.435 29.8984 119.411 29.6523 119.376 29.582C119.329 29.5 119.241 29.4121 119.112 29.3184C119.007 29.2363 118.855 29.1543 118.655 29.0723C118.468 28.9902 118.216 28.9023 117.899 28.8086ZM122.083 32.0078C122.001 32.2773 121.983 32.541 122.03 32.7988C122.077 33.0566 122.194 33.2969 122.382 33.5195C122.581 33.7422 122.857 33.9414 123.208 34.1172C123.571 34.2812 124.023 34.4043 124.562 34.4863C125.101 34.5684 125.511 34.5566 125.792 34.4512C126.073 34.3457 126.278 34.1816 126.407 33.959C126.548 33.7246 126.642 33.4551 126.689 33.1504C126.735 32.834 126.794 32.5059 126.864 32.166C126.935 31.8379 126.923 31.5039 126.829 31.1641C126.735 30.8125 126.601 30.4961 126.425 30.2148C126.261 29.9336 126.073 29.7051 125.862 29.5293C125.663 29.3418 125.487 29.248 125.335 29.248C124.972 29.248 124.614 29.3418 124.263 29.5293C123.911 29.7168 123.589 29.9512 123.296 30.2324C123.003 30.5137 122.745 30.8184 122.523 31.1465C122.312 31.4629 122.165 31.75 122.083 32.0078ZM134.845 29.125C135.149 29.125 135.466 29.1836 135.794 29.3008C136.122 29.4062 136.439 29.5469 136.743 29.7227C137.048 29.8867 137.323 30.0684 137.569 30.2676C137.827 30.4551 138.038 30.6367 138.202 30.8125C138.495 31.1289 138.694 31.5566 138.8 32.0957C138.917 32.623 138.94 33.168 138.87 33.7305C138.8 34.2812 138.636 34.8027 138.378 35.2949C138.12 35.7871 137.763 36.1504 137.306 36.3848C136.978 36.5488 136.655 36.6777 136.339 36.7715C136.023 36.8652 135.718 36.9355 135.425 36.9824C135.132 37.0293 134.857 37.0527 134.599 37.0527C134.341 37.0527 134.118 37.0469 133.931 37.0352C133.579 37.0117 133.21 36.8887 132.823 36.666C132.448 36.4434 132.091 36.168 131.751 35.8398C131.423 35.5117 131.142 35.1543 130.907 34.7676C130.673 34.3691 130.532 33.9941 130.485 33.6426C130.415 33.1621 130.403 32.6582 130.45 32.1309C130.497 31.6035 130.667 31.1172 130.96 30.6719C131.265 30.2266 131.722 29.8574 132.331 29.5645C132.952 29.2715 133.79 29.125 134.845 29.125ZM134.265 35.9453C134.394 35.9688 134.569 35.9395 134.792 35.8574C135.015 35.7637 135.232 35.6172 135.442 35.418C135.665 35.2188 135.858 34.9668 136.023 34.6621C136.198 34.3457 136.304 33.9648 136.339 33.5195C136.374 33.0859 136.374 32.6875 136.339 32.3242C136.315 31.9609 136.263 31.6445 136.181 31.375C136.099 31.0938 136.005 30.8652 135.899 30.6895C135.794 30.5137 135.683 30.3906 135.565 30.3203C135.366 30.2148 135.126 30.1328 134.845 30.0742C134.564 30.0039 134.323 30.0156 134.124 30.1094C134.03 30.1562 133.913 30.2559 133.773 30.4082C133.632 30.5605 133.491 30.7539 133.351 30.9883C133.21 31.2109 133.081 31.4688 132.964 31.7617C132.858 32.0547 132.782 32.3594 132.735 32.6758C132.689 32.9922 132.677 33.332 132.7 33.6953C132.735 34.0586 132.812 34.4043 132.929 34.7324C133.046 35.0488 133.21 35.3242 133.421 35.5586C133.644 35.7812 133.925 35.9102 134.265 35.9453ZM144.425 29.125C144.73 29.125 145.046 29.1836 145.374 29.3008C145.702 29.4062 146.019 29.5469 146.323 29.7227C146.628 29.8867 146.903 30.0684 147.149 30.2676C147.407 30.4551 147.618 30.6367 147.782 30.8125C148.075 31.1289 148.274 31.5566 148.38 32.0957C148.497 32.623 148.521 33.168 148.45 33.7305C148.38 34.2812 148.216 34.8027 147.958 35.2949C147.7 35.7871 147.343 36.1504 146.886 36.3848C146.558 36.5488 146.235 36.6777 145.919 36.7715C145.603 36.8652 145.298 36.9355 145.005 36.9824C144.712 37.0293 144.437 37.0527 144.179 37.0527C143.921 37.0527 143.698 37.0469 143.511 37.0352C143.159 37.0117 142.79 36.8887 142.403 36.666C142.028 36.4434 141.671 36.168 141.331 35.8398C141.003 35.5117 140.722 35.1543 140.487 34.7676C140.253 34.3691 140.112 33.9941 140.065 33.6426C139.995 33.1621 139.983 32.6582 140.03 32.1309C140.077 31.6035 140.247 31.1172 140.54 30.6719C140.845 30.2266 141.302 29.8574 141.911 29.5645C142.532 29.2715 143.37 29.125 144.425 29.125ZM143.845 35.9453C143.974 35.9688 144.149 35.9395 144.372 35.8574C144.595 35.7637 144.812 35.6172 145.023 35.418C145.245 35.2188 145.439 34.9668 145.603 34.6621C145.778 34.3457 145.884 33.9648 145.919 33.5195C145.954 33.0859 145.954 32.6875 145.919 32.3242C145.896 31.9609 145.843 31.6445 145.761 31.375C145.679 31.0938 145.585 30.8652 145.48 30.6895C145.374 30.5137 145.263 30.3906 145.146 30.3203C144.946 30.2148 144.706 30.1328 144.425 30.0742C144.144 30.0039 143.903 30.0156 143.704 30.1094C143.61 30.1562 143.493 30.2559 143.353 30.4082C143.212 30.5605 143.071 30.7539 142.931 30.9883C142.79 31.2109 142.661 31.4688 142.544 31.7617C142.439 32.0547 142.362 32.3594 142.315 32.6758C142.269 32.9922 142.257 33.332 142.28 33.6953C142.315 34.0586 142.392 34.4043 142.509 34.7324C142.626 35.0488 142.79 35.3242 143.001 35.5586C143.224 35.7812 143.505 35.9102 143.845 35.9453ZM149.118 24.3262C149.247 24.3848 149.399 24.4258 149.575 24.4492C149.763 24.4727 149.939 24.4844 150.103 24.4844C150.302 24.4844 150.507 24.4785 150.718 24.4668C150.929 24.4551 151.187 24.4316 151.491 24.3965C151.737 24.373 152.042 24.3438 152.405 24.3086C152.769 24.2734 153.173 24.2266 153.618 24.168C153.454 24.25 153.314 24.3379 153.196 24.4316C153.079 24.5254 152.98 24.6191 152.898 24.7129C152.804 24.8184 152.728 24.9238 152.669 25.0293C152.587 25.1699 152.476 25.416 152.335 25.7676C152.206 26.1074 152.071 26.4883 151.931 26.9102C151.802 27.332 151.685 27.7598 151.579 28.1934C151.485 28.627 151.433 28.9961 151.421 29.3008C151.409 29.5586 151.398 29.8516 151.386 30.1797C151.374 30.4609 151.362 30.8066 151.351 31.2168C151.339 31.627 151.327 32.0957 151.315 32.623C152.159 32.0137 152.81 31.5273 153.267 31.1641C153.724 30.7891 154.058 30.502 154.269 30.3027C154.515 30.0801 154.661 29.9219 154.708 29.8281C154.696 29.7578 154.667 29.6816 154.62 29.5996C154.562 29.5293 154.48 29.4473 154.374 29.3535C154.269 29.2598 154.11 29.1543 153.899 29.0371C154.204 29.0723 154.468 29.0957 154.69 29.1074C154.925 29.1191 155.124 29.1309 155.288 29.1426C155.476 29.1543 155.64 29.1543 155.78 29.1426C155.933 29.1426 156.12 29.1367 156.343 29.125C156.73 29.1133 157.327 29.0957 158.136 29.0723C157.351 29.4824 156.73 29.834 156.273 30.127C156.015 30.291 155.786 30.4434 155.587 30.584C155.388 30.7363 155.183 30.8945 154.972 31.0586C154.784 31.1992 154.567 31.3633 154.321 31.5508C154.087 31.7383 153.853 31.9375 153.618 32.1484C154.028 32.8164 154.386 33.3672 154.69 33.8008C155.007 34.2344 155.271 34.5859 155.482 34.8555C155.728 35.1719 155.944 35.4238 156.132 35.6113C156.319 35.7871 156.565 35.9863 156.87 36.209C157.128 36.4082 157.462 36.6426 157.872 36.9121C158.294 37.1699 158.804 37.4688 159.401 37.8086C159.097 37.75 158.804 37.709 158.523 37.6855C158.241 37.6738 158.001 37.6738 157.802 37.6855C157.556 37.6973 157.333 37.7207 157.134 37.7559C156.923 37.8027 156.689 37.8613 156.431 37.9316C156.208 37.9902 155.944 38.0664 155.64 38.1602C155.347 38.2656 155.024 38.4004 154.673 38.5645C154.896 38.4004 155.06 38.2422 155.165 38.0898C155.282 37.9492 155.364 37.832 155.411 37.7383C155.458 37.6211 155.476 37.5215 155.464 37.4395C155.405 37.3223 155.271 37.082 155.06 36.7188C154.86 36.4141 154.567 35.9688 154.181 35.3828C153.794 34.7969 153.243 34 152.528 32.9922C152.493 33.0039 152.435 33.0391 152.353 33.0977C152.282 33.1562 152.177 33.2383 152.036 33.3438C151.896 33.4375 151.708 33.5781 151.474 33.7656L151.948 36.8418C151.843 36.8887 151.726 36.9297 151.597 36.9648C151.48 37 151.368 37.0293 151.263 37.0527C151.134 37.0879 151.005 37.1113 150.876 37.123C150.747 37.1348 150.595 37.1582 150.419 37.1934C150.267 37.2168 150.085 37.2461 149.874 37.2812C149.663 37.3281 149.423 37.3809 149.153 37.4395C149.306 37.334 149.429 37.2109 149.523 37.0703C149.616 36.9414 149.692 36.8184 149.751 36.7012C149.81 36.5723 149.862 36.4375 149.909 36.2969C149.933 36.1797 149.956 35.875 149.98 35.3828C150.015 34.8906 150.044 34.3047 150.067 33.625C150.091 32.9336 150.108 32.1953 150.12 31.4102C150.144 30.625 150.155 29.8867 150.155 29.1953C150.155 28.4922 150.149 27.8828 150.138 27.3672C150.126 26.8398 150.103 26.5 150.067 26.3477C150.009 26.1602 149.939 25.9609 149.857 25.75C149.786 25.5625 149.687 25.3516 149.558 25.1172C149.44 24.8711 149.294 24.6074 149.118 24.3262ZM156.607 28.0176C156.841 28.0527 157.052 28.082 157.239 28.1055C157.415 28.1172 157.573 28.1289 157.714 28.1406C157.866 28.1523 158.013 28.1582 158.153 28.1582C158.282 28.1582 158.446 28.1523 158.646 28.1406C158.81 28.1289 159.021 28.1172 159.278 28.1055C159.548 28.082 159.864 28.0527 160.228 28.0176C160.204 28.0645 160.157 28.2109 160.087 28.457C160.017 28.6914 159.946 28.9844 159.876 29.3359C159.806 29.6758 159.741 30.0566 159.683 30.4785C159.636 30.8887 159.612 31.2988 159.612 31.709C159.624 32.1074 159.677 32.4883 159.771 32.8516C159.864 33.2031 160.017 33.4902 160.228 33.7129C160.673 34.1699 161.065 34.4453 161.405 34.5391C161.757 34.6328 162.062 34.6211 162.319 34.5039C162.577 34.3867 162.788 34.2109 162.952 33.9766C163.116 33.7422 163.233 33.5254 163.304 33.3262C163.48 32.7871 163.585 32.2188 163.62 31.6211C163.644 31.1055 163.603 30.5312 163.497 29.8984C163.392 29.2656 163.14 28.6211 162.741 27.9648C163.046 27.9883 163.31 28.0059 163.532 28.0176C163.755 28.0293 163.948 28.041 164.112 28.0527C164.3 28.0645 164.464 28.0762 164.605 28.0879C164.733 28.0996 164.886 28.0996 165.062 28.0879C165.214 28.0879 165.396 28.082 165.607 28.0703C165.829 28.0469 166.075 28.0234 166.345 28C166.392 29.1484 166.433 30.1738 166.468 31.0762C166.503 31.9668 166.526 32.7578 166.538 33.4492C166.562 34.1289 166.573 34.7207 166.573 35.2246C166.573 35.7168 166.573 36.1328 166.573 36.4727C166.562 37.2812 166.526 37.8145 166.468 38.0723C166.374 38.4355 166.204 38.7988 165.958 39.1621C165.724 39.5254 165.425 39.8477 165.062 40.1289C164.698 40.4219 164.276 40.6445 163.796 40.7969C163.327 40.9609 162.812 41.0195 162.249 40.9727C161.698 40.9258 161.259 40.8496 160.931 40.7441C160.614 40.6504 160.362 40.5391 160.175 40.4102C159.999 40.2812 159.87 40.1465 159.788 40.0059C159.718 39.8652 159.665 39.7188 159.63 39.5664C159.595 39.4258 159.56 39.291 159.524 39.1621C159.489 39.0332 159.419 38.9219 159.314 38.8281C159.185 38.7227 159.05 38.6172 158.909 38.5117C158.78 38.418 158.64 38.3242 158.487 38.2305C158.347 38.1367 158.206 38.0605 158.065 38.002L161.81 37.791C161.704 37.9316 161.628 38.0605 161.581 38.1777C161.534 38.2949 161.505 38.3945 161.493 38.4766C161.482 38.582 161.487 38.6699 161.511 38.7402C161.558 38.8809 161.64 39.0332 161.757 39.1973C161.886 39.373 162.05 39.5078 162.249 39.6016C162.448 39.707 162.683 39.7422 162.952 39.707C163.233 39.6719 163.55 39.5254 163.901 39.2676C164.194 39.0449 164.44 38.6875 164.64 38.1953C164.804 37.7734 164.933 37.1816 165.026 36.4199C165.12 35.6582 165.103 34.6562 164.974 33.4141C164.763 34.1406 164.476 34.6973 164.112 35.084C163.749 35.4707 163.386 35.752 163.023 35.9277C162.601 36.1387 162.161 36.25 161.704 36.2617C161.095 36.2383 160.573 36.1621 160.14 36.0332C159.706 35.8926 159.349 35.7051 159.067 35.4707C158.786 35.2363 158.564 34.9609 158.399 34.6445C158.247 34.3164 158.136 33.9531 158.065 33.5547C157.995 33.1562 157.96 32.7578 157.96 32.3594C157.96 31.9492 157.96 31.5684 157.96 31.2168C157.972 30.8652 157.978 30.5488 157.978 30.2676C157.978 29.9746 157.948 29.7402 157.89 29.5645C157.819 29.3887 157.726 29.2129 157.608 29.0371C157.515 28.8848 157.386 28.7207 157.222 28.5449C157.046 28.3574 156.841 28.1816 156.607 28.0176Z" fill="white"/>
</svg>
